<svg xmlns="http://www.w3.org/2000/svg" viewBox="0 0 6100 100" width="6100" height="100"><g><defs><clipPath id="clip_frame0_fill"><path d="M8.3 88.5V13.8s.5-8.3 6.7-8.3 69.4.1 69.4.1 7.2.2 7.2 8.2v50.9s-1.6 6.9-7 7.1l-59.4.3L8.3 88.5z"/></clipPath><clipPath id="clip_frame0_top"><path d="M8.3 88.5V13.8s.5-8.3 6.7-8.3 69.4.1 69.4.1 7.2.2 7.2 8.2v50.9s-1.6 6.9-7 7.1l-59.4.3L8.3 88.5z"/></clipPath><clipPath id="clip_frame0_middle"><path d="M8.3 88.5V13.8s.5-8.3 6.7-8.3 69.4.1 69.4.1 7.2.2 7.2 8.2v50.9s-1.6 6.9-7 7.1l-59.4.3L8.3 88.5z"/></clipPath><clipPath id="clip_frame0_bottom"><path d="M8.3 88.5V13.8s.5-8.3 6.7-8.3 69.4.1 69.4.1 7.2.2 7.2 8.2v50.9s-1.6 6.9-7 7.1l-59.4.3L8.3 88.5z"/></clipPath></defs><path d="M8.3 88.5V13.8s.5-8.3 6.7-8.3 69.4.1 69.4.1 7.2.2 7.2 8.2v50.9s-1.6 6.9-7 7.1l-59.4.3L8.3 88.5z" fill="#ffffff" stroke="#000000" stroke-width="8" stroke-miterlimit="10"/><path clip-path="url(#clip_frame0_fill)" d="M6.4 91.1s25.8-1.1 45.9 0c20.1 1.1 41.4-.3 41.4-.3l-1 5.3H6.4v-5z" fill="#000000"/><path clip-path="url(#clip_frame0_top)" d="M2.9 22.6h72.8" fill="#ffffff" stroke="#ffffff" stroke-width="8" stroke-dasharray="0,72.8" stroke-dashoffset="72.8" stroke-miterlimit="10"/><path clip-path="url(#clip_frame0_middle)" d="M-3.1 39.1h72.8" fill="#ffffff" stroke="#ffffff" stroke-width="8" stroke-dasharray="0,72.8" stroke-dashoffset="72.8" stroke-miterlimit="10"/><path clip-path="url(#clip_frame0_bottom)" d="M-10.1 55.6h72.8" fill="#ffffff" stroke="#ffffff" stroke-width="8" stroke-dasharray="0,72.8" stroke-dashoffset="72.8" stroke-miterlimit="10"/></g><g transform="translate(100)"><defs><clipPath id="clip_frame1_fill"><path d="M8.3 88.5V13.8s.5-8.3 6.7-8.3 69.4.1 69.4.1 7.2.2 7.2 8.2v50.9s-1.6 6.9-7 7.1l-59.4.3L8.3 88.5z"/></clipPath><clipPath id="clip_frame1_top"><path d="M8.3 88.5V13.8s.5-8.3 6.7-8.3 69.4.1 69.4.1 7.2.2 7.2 8.2v50.9s-1.6 6.9-7 7.1l-59.4.3L8.3 88.5z"/></clipPath><clipPath id="clip_frame1_middle"><path d="M8.3 88.5V13.8s.5-8.3 6.7-8.3 69.4.1 69.4.1 7.2.2 7.2 8.2v50.9s-1.6 6.9-7 7.1l-59.4.3L8.3 88.5z"/></clipPath><clipPath id="clip_frame1_bottom"><path d="M8.3 88.5V13.8s.5-8.3 6.7-8.3 69.4.1 69.4.1 7.2.2 7.2 8.2v50.9s-1.6 6.9-7 7.1l-59.4.3L8.3 88.5z"/></clipPath></defs><path d="M8.3 88.5V13.8s.5-8.3 6.7-8.3 69.4.1 69.4.1 7.2.2 7.2 8.2v50.9s-1.6 6.9-7 7.1l-59.4.3L8.3 88.5z" fill="#ffffff" stroke="#000000" stroke-width="8" stroke-miterlimit="10"/><path clip-path="url(#clip_frame1_fill)" d="M6.4 91.011s25.8-1.119 45.9 0c20.1 1.12 41.4-.306 41.4-.306l-1 5.395H6.4v-5.089z" fill="#000000"/><path clip-path="url(#clip_frame1_top)" d="M2.9 22.6h72.8" fill="#ffffff" stroke="#ffffff" stroke-width="8" stroke-dasharray="0,72.8" stroke-dashoffset="72.8" stroke-miterlimit="10"/><path clip-path="url(#clip_frame1_middle)" d="M-3.1 39.1h72.8" fill="#ffffff" stroke="#ffffff" stroke-width="8" stroke-dasharray="0,72.8" stroke-dashoffset="72.8" stroke-miterlimit="10"/><path clip-path="url(#clip_frame1_bottom)" d="M-10.1 55.6h72.8" fill="#ffffff" stroke="#ffffff" stroke-width="8" stroke-dasharray="0,72.8" stroke-dashoffset="72.8" stroke-miterlimit="10"/></g><g transform="translate(200)"><defs><clipPath id="clip_frame2_fill"><path d="M8.3 88.5V13.8s.5-8.3 6.7-8.3 69.4.1 69.4.1 7.2.2 7.2 8.2v50.9s-1.6 6.9-7 7.1l-59.4.3L8.3 88.5z"/></clipPath><clipPath id="clip_frame2_top"><path d="M8.3 88.5V13.8s.5-8.3 6.7-8.3 69.4.1 69.4.1 7.2.2 7.2 8.2v50.9s-1.6 6.9-7 7.1l-59.4.3L8.3 88.5z"/></clipPath><clipPath id="clip_frame2_middle"><path d="M8.3 88.5V13.8s.5-8.3 6.7-8.3 69.4.1 69.4.1 7.2.2 7.2 8.2v50.9s-1.6 6.9-7 7.1l-59.4.3L8.3 88.5z"/></clipPath><clipPath id="clip_frame2_bottom"><path d="M8.3 88.5V13.8s.5-8.3 6.7-8.3 69.4.1 69.4.1 7.2.2 7.2 8.2v50.9s-1.6 6.9-7 7.1l-59.4.3L8.3 88.5z"/></clipPath></defs><path d="M8.3 88.5V13.8s.5-8.3 6.7-8.3 69.4.1 69.4.1 7.2.2 7.2 8.2v50.9s-1.6 6.9-7 7.1l-59.4.3L8.3 88.5z" fill="#ffffff" stroke="#000000" stroke-width="8" stroke-miterlimit="10"/><path clip-path="url(#clip_frame2_fill)" d="M6.4 90.73s25.8-1.181 45.9 0c20.1 1.18 41.4-.326 41.4-.326l-1 5.696H6.4v-5.37z" fill="#000000"/><path clip-path="url(#clip_frame2_top)" d="M2.9 22.6h72.8" fill="#ffffff" stroke="#ffffff" stroke-width="8" stroke-dasharray="0,72.8" stroke-dashoffset="72.8" stroke-miterlimit="10"/><path clip-path="url(#clip_frame2_middle)" d="M-3.1 39.1h72.8" fill="#ffffff" stroke="#ffffff" stroke-width="8" stroke-dasharray="0,72.8" stroke-dashoffset="72.8" stroke-miterlimit="10"/><path clip-path="url(#clip_frame2_bottom)" d="M-10.1 55.6h72.8" fill="#ffffff" stroke="#ffffff" stroke-width="8" stroke-dasharray="0,72.8" stroke-dashoffset="72.8" stroke-miterlimit="10"/></g><g transform="translate(300)"><defs><clipPath id="clip_frame3_fill"><path d="M8.3 88.5V13.8s.5-8.3 6.7-8.3 69.4.1 69.4.1 7.2.2 7.2 8.2v50.9s-1.6 6.9-7 7.1l-59.4.3L8.3 88.5z"/></clipPath><clipPath id="clip_frame3_top"><path d="M8.3 88.5V13.8s.5-8.3 6.7-8.3 69.4.1 69.4.1 7.2.2 7.2 8.2v50.9s-1.6 6.9-7 7.1l-59.4.3L8.3 88.5z"/></clipPath><clipPath id="clip_frame3_middle"><path d="M8.3 88.5V13.8s.5-8.3 6.7-8.3 69.4.1 69.4.1 7.2.2 7.2 8.2v50.9s-1.6 6.9-7 7.1l-59.4.3L8.3 88.5z"/></clipPath><clipPath id="clip_frame3_bottom"><path d="M8.3 88.5V13.8s.5-8.3 6.7-8.3 69.4.1 69.4.1 7.2.2 7.2 8.2v50.9s-1.6 6.9-7 7.1l-59.4.3L8.3 88.5z"/></clipPath></defs><path d="M8.3 88.5V13.8s.5-8.3 6.7-8.3 69.4.1 69.4.1 7.2.2 7.2 8.2v50.9s-1.6 6.9-7 7.1l-59.4.3L8.3 88.5z" fill="#ffffff" stroke="#000000" stroke-width="8" stroke-miterlimit="10"/><path clip-path="url(#clip_frame3_fill)" d="M6.4 90.228s25.8-1.289 45.9 0c20.1 1.289 41.4-.359 41.4-.359l-1 6.231H6.4v-5.872z" fill="#000000"/><path clip-path="url(#clip_frame3_top)" d="M2.9 22.6h72.8" fill="#ffffff" stroke="#ffffff" stroke-width="8" stroke-dasharray="0,72.8" stroke-dashoffset="72.8" stroke-miterlimit="10"/><path clip-path="url(#clip_frame3_middle)" d="M-3.1 39.1h72.8" fill="#ffffff" stroke="#ffffff" stroke-width="8" stroke-dasharray="0,72.8" stroke-dashoffset="72.8" stroke-miterlimit="10"/><path clip-path="url(#clip_frame3_bottom)" d="M-10.1 55.6h72.8" fill="#ffffff" stroke="#ffffff" stroke-width="8" stroke-dasharray="0,72.8" stroke-dashoffset="72.8" stroke-miterlimit="10"/></g><g transform="translate(400)"><defs><clipPath id="clip_frame4_fill"><path d="M8.3 88.5V13.8s.5-8.3 6.7-8.3 69.4.1 69.4.1 7.2.2 7.2 8.2v50.9s-1.6 6.9-7 7.1l-59.4.3L8.3 88.5z"/></clipPath><clipPath id="clip_frame4_top"><path d="M8.3 88.5V13.8s.5-8.3 6.7-8.3 69.4.1 69.4.1 7.2.2 7.2 8.2v50.9s-1.6 6.9-7 7.1l-59.4.3L8.3 88.5z"/></clipPath><clipPath id="clip_frame4_middle"><path d="M8.3 88.5V13.8s.5-8.3 6.7-8.3 69.4.1 69.4.1 7.2.2 7.2 8.2v50.9s-1.6 6.9-7 7.1l-59.4.3L8.3 88.5z"/></clipPath><clipPath id="clip_frame4_bottom"><path d="M8.3 88.5V13.8s.5-8.3 6.7-8.3 69.4.1 69.4.1 7.2.2 7.2 8.2v50.9s-1.6 6.9-7 7.1l-59.4.3L8.3 88.5z"/></clipPath></defs><path d="M8.3 88.5V13.8s.5-8.3 6.7-8.3 69.4.1 69.4.1 7.2.2 7.2 8.2v50.9s-1.6 6.9-7 7.1l-59.4.3L8.3 88.5z" fill="#ffffff" stroke="#000000" stroke-width="8" stroke-miterlimit="10"/><path clip-path="url(#clip_frame4_fill)" d="M6.4 89.475s25.8-1.452 45.9 0c20.1 1.452 41.4-.411 41.4-.411l-1 7.036H6.4v-6.625z" fill="#000000"/><path clip-path="url(#clip_frame4_top)" d="M2.9 22.6h72.8" fill="#ffffff" stroke="#ffffff" stroke-width="8" stroke-dasharray="0,72.8" stroke-dashoffset="72.8" stroke-miterlimit="10"/><path clip-path="url(#clip_frame4_middle)" d="M-3.1 39.1h72.8" fill="#ffffff" stroke="#ffffff" stroke-width="8" stroke-dasharray="0,72.8" stroke-dashoffset="72.8" stroke-miterlimit="10"/><path clip-path="url(#clip_frame4_bottom)" d="M-10.1 55.6h72.8" fill="#ffffff" stroke="#ffffff" stroke-width="8" stroke-dasharray="0,72.8" stroke-dashoffset="72.8" stroke-miterlimit="10"/></g><g transform="translate(500)"><defs><clipPath id="clip_frame5_fill"><path d="M8.3 88.5V13.8s.5-8.3 6.7-8.3 69.4.1 69.4.1 7.2.2 7.2 8.2v50.9s-1.6 6.9-7 7.1l-59.4.3L8.3 88.5z"/></clipPath><clipPath id="clip_frame5_top"><path d="M8.3 88.5V13.8s.5-8.3 6.7-8.3 69.4.1 69.4.1 7.2.2 7.2 8.2v50.9s-1.6 6.9-7 7.1l-59.4.3L8.3 88.5z"/></clipPath><clipPath id="clip_frame5_middle"><path d="M8.3 88.5V13.8s.5-8.3 6.7-8.3 69.4.1 69.4.1 7.2.2 7.2 8.2v50.9s-1.6 6.9-7 7.1l-59.4.3L8.3 88.5z"/></clipPath><clipPath id="clip_frame5_bottom"><path d="M8.3 88.5V13.8s.5-8.3 6.7-8.3 69.4.1 69.4.1 7.2.2 7.2 8.2v50.9s-1.6 6.9-7 7.1l-59.4.3L8.3 88.5z"/></clipPath></defs><path d="M8.3 88.5V13.8s.5-8.3 6.7-8.3 69.4.1 69.4.1 7.2.2 7.2 8.2v50.9s-1.6 6.9-7 7.1l-59.4.3L8.3 88.5z" fill="#ffffff" stroke="#000000" stroke-width="8" stroke-miterlimit="10"/><path clip-path="url(#clip_frame5_fill)" d="M6.4 88.433s25.8-1.679 45.9 0c20.1 1.678 41.4-.482 41.4-.482l-1 8.149H6.4v-7.667z" fill="#000000"/><path clip-path="url(#clip_frame5_top)" d="M2.9 22.6h72.8" fill="#ffffff" stroke="#ffffff" stroke-width="8" stroke-dasharray="0,72.8" stroke-dashoffset="72.8" stroke-miterlimit="10"/><path clip-path="url(#clip_frame5_middle)" d="M-3.1 39.1h72.8" fill="#ffffff" stroke="#ffffff" stroke-width="8" stroke-dasharray="0,72.8" stroke-dashoffset="72.8" stroke-miterlimit="10"/><path clip-path="url(#clip_frame5_bottom)" d="M-10.1 55.6h72.8" fill="#ffffff" stroke="#ffffff" stroke-width="8" stroke-dasharray="0,72.8" stroke-dashoffset="72.8" stroke-miterlimit="10"/></g><g transform="translate(600)"><defs><clipPath id="clip_frame6_fill"><path d="M8.3 88.5V13.8s.5-8.3 6.7-8.3 69.4.1 69.4.1 7.2.2 7.2 8.2v50.9s-1.6 6.9-7 7.1l-59.4.3L8.3 88.5z"/></clipPath><clipPath id="clip_frame6_top"><path d="M8.3 88.5V13.8s.5-8.3 6.7-8.3 69.4.1 69.4.1 7.2.2 7.2 8.2v50.9s-1.6 6.9-7 7.1l-59.4.3L8.3 88.5z"/></clipPath><clipPath id="clip_frame6_middle"><path d="M8.3 88.5V13.8s.5-8.3 6.7-8.3 69.4.1 69.4.1 7.2.2 7.2 8.2v50.9s-1.6 6.9-7 7.1l-59.4.3L8.3 88.5z"/></clipPath><clipPath id="clip_frame6_bottom"><path d="M8.3 88.5V13.8s.5-8.3 6.7-8.3 69.4.1 69.4.1 7.2.2 7.2 8.2v50.9s-1.6 6.9-7 7.1l-59.4.3L8.3 88.5z"/></clipPath></defs><path d="M8.3 88.5V13.8s.5-8.3 6.7-8.3 69.4.1 69.4.1 7.2.2 7.2 8.2v50.9s-1.6 6.9-7 7.1l-59.4.3L8.3 88.5z" fill="#ffffff" stroke="#000000" stroke-width="8" stroke-miterlimit="10"/><path clip-path="url(#clip_frame6_fill)" d="M6.4 87.057s25.8-1.977 45.9 0c20.1 1.976 41.4-.575 41.4-.575l-1 9.618H6.4v-9.043z" fill="#000000"/><path clip-path="url(#clip_frame6_top)" d="M2.9 22.6h72.8" fill="#ffffff" stroke="#ffffff" stroke-width="8" stroke-dasharray="0,72.8" stroke-dashoffset="72.8" stroke-miterlimit="10"/><path clip-path="url(#clip_frame6_middle)" d="M-3.1 39.1h72.8" fill="#ffffff" stroke="#ffffff" stroke-width="8" stroke-dasharray="0,72.8" stroke-dashoffset="72.8" stroke-miterlimit="10"/><path clip-path="url(#clip_frame6_bottom)" d="M-10.1 55.6h72.8" fill="#ffffff" stroke="#ffffff" stroke-width="8" stroke-dasharray="0,72.8" stroke-dashoffset="72.8" stroke-miterlimit="10"/></g><g transform="translate(700)"><defs><clipPath id="clip_frame7_fill"><path d="M8.3 88.5V13.8s.5-8.3 6.7-8.3 69.4.1 69.4.1 7.2.2 7.2 8.2v50.9s-1.6 6.9-7 7.1l-59.4.3L8.3 88.5z"/></clipPath><clipPath id="clip_frame7_top"><path d="M8.3 88.5V13.8s.5-8.3 6.7-8.3 69.4.1 69.4.1 7.2.2 7.2 8.2v50.9s-1.6 6.9-7 7.1l-59.4.3L8.3 88.5z"/></clipPath><clipPath id="clip_frame7_middle"><path d="M8.3 88.5V13.8s.5-8.3 6.7-8.3 69.4.1 69.4.1 7.2.2 7.2 8.2v50.9s-1.6 6.9-7 7.1l-59.4.3L8.3 88.5z"/></clipPath><clipPath id="clip_frame7_bottom"><path d="M8.3 88.5V13.8s.5-8.3 6.7-8.3 69.4.1 69.4.1 7.2.2 7.2 8.2v50.9s-1.6 6.9-7 7.1l-59.4.3L8.3 88.5z"/></clipPath></defs><path d="M8.3 88.5V13.8s.5-8.3 6.7-8.3 69.4.1 69.4.1 7.2.2 7.2 8.2v50.9s-1.6 6.9-7 7.1l-59.4.3L8.3 88.5z" fill="#ffffff" stroke="#000000" stroke-width="8" stroke-miterlimit="10"/><path clip-path="url(#clip_frame7_fill)" d="M6.4 85.295s25.8-2.358 45.9 0c20.1 2.359 41.4-.694 41.4-.694l-1 11.499H6.4V85.295z" fill="#000000"/><path clip-path="url(#clip_frame7_top)" d="M2.9 22.6h72.8" fill="#ffffff" stroke="#ffffff" stroke-width="8" stroke-dasharray="0,72.8" stroke-dashoffset="72.8" stroke-miterlimit="10"/><path clip-path="url(#clip_frame7_middle)" d="M-3.1 39.1h72.8" fill="#ffffff" stroke="#ffffff" stroke-width="8" stroke-dasharray="0,72.8" stroke-dashoffset="72.8" stroke-miterlimit="10"/><path clip-path="url(#clip_frame7_bottom)" d="M-10.1 55.6h72.8" fill="#ffffff" stroke="#ffffff" stroke-width="8" stroke-dasharray="0,72.8" stroke-dashoffset="72.8" stroke-miterlimit="10"/></g><g transform="translate(800)"><defs><clipPath id="clip_frame8_fill"><path d="M8.3 88.5V13.8s.5-8.3 6.7-8.3 69.4.1 69.4.1 7.2.2 7.2 8.2v50.9s-1.6 6.9-7 7.1l-59.4.3L8.3 88.5z"/></clipPath><clipPath id="clip_frame8_top"><path d="M8.3 88.5V13.8s.5-8.3 6.7-8.3 69.4.1 69.4.1 7.2.2 7.2 8.2v50.9s-1.6 6.9-7 7.1l-59.4.3L8.3 88.5z"/></clipPath><clipPath id="clip_frame8_middle"><path d="M8.3 88.5V13.8s.5-8.3 6.7-8.3 69.4.1 69.4.1 7.2.2 7.2 8.2v50.9s-1.6 6.9-7 7.1l-59.4.3L8.3 88.5z"/></clipPath><clipPath id="clip_frame8_bottom"><path d="M8.3 88.5V13.8s.5-8.3 6.7-8.3 69.4.1 69.4.1 7.2.2 7.2 8.2v50.9s-1.6 6.9-7 7.1l-59.4.3L8.3 88.5z"/></clipPath></defs><path d="M8.3 88.5V13.8s.5-8.3 6.7-8.3 69.4.1 69.4.1 7.2.2 7.2 8.2v50.9s-1.6 6.9-7 7.1l-59.4.3L8.3 88.5z" fill="#ffffff" stroke="#000000" stroke-width="8" stroke-miterlimit="10"/><path clip-path="url(#clip_frame8_fill)" d="M6.4 83.092s25.8-2.837 45.9 0c20.1 2.836 41.4-.845 41.4-.845l-1 13.853H6.4V83.092z" fill="#000000"/><path clip-path="url(#clip_frame8_top)" d="M2.9 22.6h72.8" fill="#ffffff" stroke="#ffffff" stroke-width="8" stroke-dasharray="0,72.8" stroke-dashoffset="72.8" stroke-miterlimit="10"/><path clip-path="url(#clip_frame8_middle)" d="M-3.1 39.1h72.8" fill="#ffffff" stroke="#ffffff" stroke-width="8" stroke-dasharray="0,72.8" stroke-dashoffset="72.8" stroke-miterlimit="10"/><path clip-path="url(#clip_frame8_bottom)" d="M-10.1 55.6h72.8" fill="#ffffff" stroke="#ffffff" stroke-width="8" stroke-dasharray="0,72.8" stroke-dashoffset="72.8" stroke-miterlimit="10"/></g><g transform="translate(900)"><defs><clipPath id="clip_frame9_fill"><path d="M8.3 88.5V13.8s.5-8.3 6.7-8.3 69.4.1 69.4.1 7.2.2 7.2 8.2v50.9s-1.6 6.9-7 7.1l-59.4.3L8.3 88.5z"/></clipPath><clipPath id="clip_frame9_top"><path d="M8.3 88.5V13.8s.5-8.3 6.7-8.3 69.4.1 69.4.1 7.2.2 7.2 8.2v50.9s-1.6 6.9-7 7.1l-59.4.3L8.3 88.5z"/></clipPath><clipPath id="clip_frame9_middle"><path d="M8.3 88.5V13.8s.5-8.3 6.7-8.3 69.4.1 69.4.1 7.2.2 7.2 8.2v50.9s-1.6 6.9-7 7.1l-59.4.3L8.3 88.5z"/></clipPath><clipPath id="clip_frame9_bottom"><path d="M8.3 88.5V13.8s.5-8.3 6.7-8.3 69.4.1 69.4.1 7.2.2 7.2 8.2v50.9s-1.6 6.9-7 7.1l-59.4.3L8.3 88.5z"/></clipPath></defs><path d="M8.3 88.5V13.8s.5-8.3 6.7-8.3 69.4.1 69.4.1 7.2.2 7.2 8.2v50.9s-1.6 6.9-7 7.1l-59.4.3L8.3 88.5z" fill="#ffffff" stroke="#000000" stroke-width="8" stroke-miterlimit="10"/><path clip-path="url(#clip_frame9_fill)" d="M6.4 80.385s25.8-3.423 45.9 0c20.1 3.423 41.4-1.029 41.4-1.029l-1 16.744H6.4V80.385z" fill="#000000"/><path clip-path="url(#clip_frame9_top)" d="M2.9 22.6h72.8" fill="#ffffff" stroke="#ffffff" stroke-width="8" stroke-dasharray="0,72.8" stroke-dashoffset="72.8" stroke-miterlimit="10"/><path clip-path="url(#clip_frame9_middle)" d="M-3.1 39.1h72.8" fill="#ffffff" stroke="#ffffff" stroke-width="8" stroke-dasharray="0,72.8" stroke-dashoffset="72.8" stroke-miterlimit="10"/><path clip-path="url(#clip_frame9_bottom)" d="M-10.1 55.6h72.8" fill="#ffffff" stroke="#ffffff" stroke-width="8" stroke-dasharray="0,72.8" stroke-dashoffset="72.8" stroke-miterlimit="10"/></g><g transform="translate(1000)"><defs><clipPath id="clip_frame10_fill"><path d="M8.3 88.5V13.8s.5-8.3 6.7-8.3 69.4.1 69.4.1 7.2.2 7.2 8.2v50.9s-1.6 6.9-7 7.1l-59.4.3L8.3 88.5z"/></clipPath><clipPath id="clip_frame10_top"><path d="M8.3 88.5V13.8s.5-8.3 6.7-8.3 69.4.1 69.4.1 7.2.2 7.2 8.2v50.9s-1.6 6.9-7 7.1l-59.4.3L8.3 88.5z"/></clipPath><clipPath id="clip_frame10_middle"><path d="M8.3 88.5V13.8s.5-8.3 6.7-8.3 69.4.1 69.4.1 7.2.2 7.2 8.2v50.9s-1.6 6.9-7 7.1l-59.4.3L8.3 88.5z"/></clipPath><clipPath id="clip_frame10_bottom"><path d="M8.3 88.5V13.8s.5-8.3 6.7-8.3 69.4.1 69.4.1 7.2.2 7.2 8.2v50.9s-1.6 6.9-7 7.1l-59.4.3L8.3 88.5z"/></clipPath></defs><path d="M8.3 88.5V13.8s.5-8.3 6.7-8.3 69.4.1 69.4.1 7.2.2 7.2 8.2v50.9s-1.6 6.9-7 7.1l-59.4.3L8.3 88.5z" fill="#ffffff" stroke="#000000" stroke-width="8" stroke-miterlimit="10"/><path clip-path="url(#clip_frame10_fill)" d="M6.4 77.12s25.8-4.131 45.9 0c20.1 4.131 41.4-1.251 41.4-1.251l-1 20.231H6.4V77.12z" fill="#000000"/><path clip-path="url(#clip_frame10_top)" d="M2.9 22.6h72.8" fill="#ffffff" stroke="#ffffff" stroke-width="8" stroke-dasharray="0,72.8" stroke-dashoffset="72.8" stroke-miterlimit="10"/><path clip-path="url(#clip_frame10_middle)" d="M-3.1 39.1h72.8" fill="#ffffff" stroke="#ffffff" stroke-width="8" stroke-dasharray="0,72.8" stroke-dashoffset="72.8" stroke-miterlimit="10"/><path clip-path="url(#clip_frame10_bottom)" d="M-10.1 55.6h72.8" fill="#ffffff" stroke="#ffffff" stroke-width="8" stroke-dasharray="0,72.8" stroke-dashoffset="72.8" stroke-miterlimit="10"/></g><g transform="translate(1100)"><defs><clipPath id="clip_frame11_fill"><path d="M8.3 88.5V13.8s.5-8.3 6.7-8.3 69.4.1 69.4.1 7.2.2 7.2 8.2v50.9s-1.6 6.9-7 7.1l-59.4.3L8.3 88.5z"/></clipPath><clipPath id="clip_frame11_top"><path d="M8.3 88.5V13.8s.5-8.3 6.7-8.3 69.4.1 69.4.1 7.2.2 7.2 8.2v50.9s-1.6 6.9-7 7.1l-59.4.3L8.3 88.5z"/></clipPath><clipPath id="clip_frame11_middle"><path d="M8.3 88.5V13.8s.5-8.3 6.7-8.3 69.4.1 69.4.1 7.2.2 7.2 8.2v50.9s-1.6 6.9-7 7.1l-59.4.3L8.3 88.5z"/></clipPath><clipPath id="clip_frame11_bottom"><path d="M8.3 88.5V13.8s.5-8.3 6.7-8.3 69.4.1 69.4.1 7.2.2 7.2 8.2v50.9s-1.6 6.9-7 7.1l-59.4.3L8.3 88.5z"/></clipPath></defs><path d="M8.3 88.5V13.8s.5-8.3 6.7-8.3 69.4.1 69.4.1 7.2.2 7.2 8.2v50.9s-1.6 6.9-7 7.1l-59.4.3L8.3 88.5z" fill="#ffffff" stroke="#000000" stroke-width="8" stroke-miterlimit="10"/><path clip-path="url(#clip_frame11_fill)" d="M6.4 73.266s25.8-4.966 45.9 0c20.1 4.966 41.4-1.513 41.4-1.513l-1 24.347H6.4V73.266z" fill="#000000"/><path clip-path="url(#clip_frame11_top)" d="M2.9 22.6h72.8" fill="#ffffff" stroke="#ffffff" stroke-width="8" stroke-dasharray="0,72.8" stroke-dashoffset="72.8" stroke-miterlimit="10"/><path clip-path="url(#clip_frame11_middle)" d="M-3.1 39.1h72.8" fill="#ffffff" stroke="#ffffff" stroke-width="8" stroke-dasharray="0,72.8" stroke-dashoffset="72.8" stroke-miterlimit="10"/><path clip-path="url(#clip_frame11_bottom)" d="M-10.1 55.6h72.8" fill="#ffffff" stroke="#ffffff" stroke-width="8" stroke-dasharray="0,72.8" stroke-dashoffset="72.8" stroke-miterlimit="10"/></g><g transform="translate(1200)"><defs><clipPath id="clip_frame12_fill"><path d="M8.3 88.5V13.8s.5-8.3 6.7-8.3 69.4.1 69.4.1 7.2.2 7.2 8.2v50.9s-1.6 6.9-7 7.1l-59.4.3L8.3 88.5z"/></clipPath><clipPath id="clip_frame12_top"><path d="M8.3 88.5V13.8s.5-8.3 6.7-8.3 69.4.1 69.4.1 7.2.2 7.2 8.2v50.9s-1.6 6.9-7 7.1l-59.4.3L8.3 88.5z"/></clipPath><clipPath id="clip_frame12_middle"><path d="M8.3 88.5V13.8s.5-8.3 6.7-8.3 69.4.1 69.4.1 7.2.2 7.2 8.2v50.9s-1.6 6.9-7 7.1l-59.4.3L8.3 88.5z"/></clipPath><clipPath id="clip_frame12_bottom"><path d="M8.3 88.5V13.8s.5-8.3 6.7-8.3 69.4.1 69.4.1 7.2.2 7.2 8.2v50.9s-1.6 6.9-7 7.1l-59.4.3L8.3 88.5z"/></clipPath></defs><path d="M8.3 88.5V13.8s.5-8.3 6.7-8.3 69.4.1 69.4.1 7.2.2 7.2 8.2v50.9s-1.6 6.9-7 7.1l-59.4.3L8.3 88.5z" fill="#ffffff" stroke="#000000" stroke-width="8" stroke-miterlimit="10"/><path clip-path="url(#clip_frame12_fill)" d="M6.4 68.837s25.8-5.926 45.9 0c20.1 5.927 41.4-1.814 41.4-1.814l-1 29.077H6.4V68.837z" fill="#000000"/><path clip-path="url(#clip_frame12_top)" d="M2.9 22.6h72.8" fill="#ffffff" stroke="#ffffff" stroke-width="8" stroke-dasharray="0,72.8" stroke-dashoffset="72.8" stroke-miterlimit="10"/><path clip-path="url(#clip_frame12_middle)" d="M-3.1 39.1h72.8" fill="#ffffff" stroke="#ffffff" stroke-width="8" stroke-dasharray="0,72.8" stroke-dashoffset="72.8" stroke-miterlimit="10"/><path clip-path="url(#clip_frame12_bottom)" d="M-10.1 55.6h72.8" fill="#ffffff" stroke="#ffffff" stroke-width="8" stroke-dasharray="0,72.8" stroke-dashoffset="72.8" stroke-miterlimit="10"/></g><g transform="translate(1300)"><defs><clipPath id="clip_frame13_fill"><path d="M8.3 88.5V13.8s.5-8.3 6.7-8.3 69.4.1 69.4.1 7.2.2 7.2 8.2v50.9s-1.6 6.9-7 7.1l-59.4.3L8.3 88.5z"/></clipPath><clipPath id="clip_frame13_top"><path d="M8.3 88.5V13.8s.5-8.3 6.7-8.3 69.4.1 69.4.1 7.2.2 7.2 8.2v50.9s-1.6 6.9-7 7.1l-59.4.3L8.3 88.5z"/></clipPath><clipPath id="clip_frame13_middle"><path d="M8.3 88.5V13.8s.5-8.3 6.7-8.3 69.4.1 69.4.1 7.2.2 7.2 8.2v50.9s-1.6 6.9-7 7.1l-59.4.3L8.3 88.5z"/></clipPath><clipPath id="clip_frame13_bottom"><path d="M8.3 88.5V13.8s.5-8.3 6.7-8.3 69.4.1 69.4.1 7.2.2 7.2 8.2v50.9s-1.6 6.9-7 7.1l-59.4.3L8.3 88.5z"/></clipPath></defs><path d="M8.3 88.5V13.8s.5-8.3 6.7-8.3 69.4.1 69.4.1 7.2.2 7.2 8.2v50.9s-1.6 6.9-7 7.1l-59.4.3L8.3 88.5z" fill="#ffffff" stroke="#000000" stroke-width="8" stroke-miterlimit="10"/><path clip-path="url(#clip_frame13_fill)" d="M6.4 63.919s25.8-6.992 45.9 0c20.1 6.993 41.4-2.148 41.4-2.148l-1 34.329H6.4V63.919z" fill="#000000"/><path clip-path="url(#clip_frame13_top)" d="M2.9 22.6h72.8" fill="#ffffff" stroke="#ffffff" stroke-width="8" stroke-dasharray="0,72.8" stroke-dashoffset="72.8" stroke-miterlimit="10"/><path clip-path="url(#clip_frame13_middle)" d="M-3.1 39.1h72.8" fill="#ffffff" stroke="#ffffff" stroke-width="8" stroke-dasharray="0,72.8" stroke-dashoffset="72.8" stroke-miterlimit="10"/><path clip-path="url(#clip_frame13_bottom)" d="M-10.1 55.6h72.8" fill="#ffffff" stroke="#ffffff" stroke-width="8" stroke-dasharray="0,72.8" stroke-dashoffset="72.8" stroke-miterlimit="10"/></g><g transform="translate(1400)"><defs><clipPath id="clip_frame14_fill"><path d="M8.3 88.5V13.8s.5-8.3 6.7-8.3 69.4.1 69.4.1 7.2.2 7.2 8.2v50.9s-1.6 6.9-7 7.1l-59.4.3L8.3 88.5z"/></clipPath><clipPath id="clip_frame14_top"><path d="M8.3 88.5V13.8s.5-8.3 6.7-8.3 69.4.1 69.4.1 7.2.2 7.2 8.2v50.9s-1.6 6.9-7 7.1l-59.4.3L8.3 88.5z"/></clipPath><clipPath id="clip_frame14_middle"><path d="M8.3 88.5V13.8s.5-8.3 6.7-8.3 69.4.1 69.4.1 7.2.2 7.2 8.2v50.9s-1.6 6.9-7 7.1l-59.4.3L8.3 88.5z"/></clipPath><clipPath id="clip_frame14_bottom"><path d="M8.3 88.5V13.8s.5-8.3 6.7-8.3 69.4.1 69.4.1 7.2.2 7.2 8.2v50.9s-1.6 6.9-7 7.1l-59.4.3L8.3 88.5z"/></clipPath></defs><path d="M8.3 88.5V13.8s.5-8.3 6.7-8.3 69.4.1 69.4.1 7.2.2 7.2 8.2v50.9s-1.6 6.9-7 7.1l-59.4.3L8.3 88.5z" fill="#ffffff" stroke="#000000" stroke-width="8" stroke-miterlimit="10"/><path clip-path="url(#clip_frame14_fill)" d="M6.4 58.678s25.8-8.129 45.9 0c20.1 8.128 41.4-2.506 41.4-2.506l-1 39.928H6.4V58.678z" fill="#000000"/><path clip-path="url(#clip_frame14_top)" d="M2.9 22.6h72.8" fill="#ffffff" stroke="#ffffff" stroke-width="8" stroke-dasharray="0,72.8" stroke-dashoffset="72.8" stroke-miterlimit="10"/><path clip-path="url(#clip_frame14_middle)" d="M-3.1 39.1h72.8" fill="#ffffff" stroke="#ffffff" stroke-width="8" stroke-dasharray="0,72.8" stroke-dashoffset="72.8" stroke-miterlimit="10"/><path clip-path="url(#clip_frame14_bottom)" d="M-10.1 55.6h72.8" fill="#ffffff" stroke="#ffffff" stroke-width="8" stroke-dasharray="0,72.8" stroke-dashoffset="72.8" stroke-miterlimit="10"/></g><g transform="translate(1500)"><defs><clipPath id="clip_frame15_fill"><path d="M8.3 88.5V13.8s.5-8.3 6.7-8.3 69.4.1 69.4.1 7.2.2 7.2 8.2v50.9s-1.6 6.9-7 7.1l-59.4.3L8.3 88.5z"/></clipPath><clipPath id="clip_frame15_top"><path d="M8.3 88.5V13.8s.5-8.3 6.7-8.3 69.4.1 69.4.1 7.2.2 7.2 8.2v50.9s-1.6 6.9-7 7.1l-59.4.3L8.3 88.5z"/></clipPath><clipPath id="clip_frame15_middle"><path d="M8.3 88.5V13.8s.5-8.3 6.7-8.3 69.4.1 69.4.1 7.2.2 7.2 8.2v50.9s-1.6 6.9-7 7.1l-59.4.3L8.3 88.5z"/></clipPath><clipPath id="clip_frame15_bottom"><path d="M8.3 88.5V13.8s.5-8.3 6.7-8.3 69.4.1 69.4.1 7.2.2 7.2 8.2v50.9s-1.6 6.9-7 7.1l-59.4.3L8.3 88.5z"/></clipPath></defs><path d="M8.3 88.5V13.8s.5-8.3 6.7-8.3 69.4.1 69.4.1 7.2.2 7.2 8.2v50.9s-1.6 6.9-7 7.1l-59.4.3L8.3 88.5z" fill="#ffffff" stroke="#000000" stroke-width="8" stroke-miterlimit="10"/><path clip-path="url(#clip_frame15_fill)" d="M6.4 53.326s25.8-9.29 45.9 0c20.1 9.289 41.4-2.87 41.4-2.87l-1 45.644H6.4V53.326z" fill="#000000"/><path clip-path="url(#clip_frame15_top)" d="M2.9 22.6h72.8" fill="#ffffff" stroke="#ffffff" stroke-width="8" stroke-dasharray="0,72.8" stroke-dashoffset="72.8" stroke-miterlimit="10"/><path clip-path="url(#clip_frame15_middle)" d="M-3.1 39.1h72.8" fill="#ffffff" stroke="#ffffff" stroke-width="8" stroke-dasharray="0,72.8" stroke-dashoffset="72.8" stroke-miterlimit="10"/><path clip-path="url(#clip_frame15_bottom)" d="M-10.1 55.6h72.8" fill="#ffffff" stroke="#ffffff" stroke-width="8" stroke-dasharray="0,72.8" stroke-dashoffset="72.8" stroke-miterlimit="10"/></g><g transform="translate(1600)"><defs><clipPath id="clip_frame16_fill"><path d="M8.3 88.5V13.8s.5-8.3 6.7-8.3 69.4.1 69.4.1 7.2.2 7.2 8.2v50.9s-1.6 6.9-7 7.1l-59.4.3L8.3 88.5z"/></clipPath><clipPath id="clip_frame16_top"><path d="M8.3 88.5V13.8s.5-8.3 6.7-8.3 69.4.1 69.4.1 7.2.2 7.2 8.2v50.9s-1.6 6.9-7 7.1l-59.4.3L8.3 88.5z"/></clipPath><clipPath id="clip_frame16_middle"><path d="M8.3 88.5V13.8s.5-8.3 6.7-8.3 69.4.1 69.4.1 7.2.2 7.2 8.2v50.9s-1.6 6.9-7 7.1l-59.4.3L8.3 88.5z"/></clipPath><clipPath id="clip_frame16_bottom"><path d="M8.3 88.5V13.8s.5-8.3 6.7-8.3 69.4.1 69.4.1 7.2.2 7.2 8.2v50.9s-1.6 6.9-7 7.1l-59.4.3L8.3 88.5z"/></clipPath></defs><path d="M8.3 88.5V13.8s.5-8.3 6.7-8.3 69.4.1 69.4.1 7.2.2 7.2 8.2v50.9s-1.6 6.9-7 7.1l-59.4.3L8.3 88.5z" fill="#ffffff" stroke="#000000" stroke-width="8" stroke-miterlimit="10"/><path clip-path="url(#clip_frame16_fill)" d="M6.4 48.073s25.8-10.428 45.9 0c20.1 10.428 41.4-3.227 41.4-3.227l-1 51.254H6.4V48.073z" fill="#000000"/><path clip-path="url(#clip_frame16_top)" d="M2.9 22.6h72.8" fill="#ffffff" stroke="#ffffff" stroke-width="8" stroke-dasharray="0,72.8" stroke-dashoffset="72.8" stroke-miterlimit="10"/><path clip-path="url(#clip_frame16_middle)" d="M-3.1 39.1h72.8" fill="#ffffff" stroke="#ffffff" stroke-width="8" stroke-dasharray="0,72.8" stroke-dashoffset="72.8" stroke-miterlimit="10"/><path clip-path="url(#clip_frame16_bottom)" d="M-10.1 55.6h72.8" fill="#ffffff" stroke="#ffffff" stroke-width="8" stroke-dasharray="0,72.8" stroke-dashoffset="72.8" stroke-miterlimit="10"/></g><g transform="translate(1700)"><defs><clipPath id="clip_frame17_fill"><path d="M8.3 88.5V13.8s.5-8.3 6.7-8.3 69.4.1 69.4.1 7.2.2 7.2 8.2v50.9s-1.6 6.9-7 7.1l-59.4.3L8.3 88.5z"/></clipPath><clipPath id="clip_frame17_top"><path d="M8.3 88.5V13.8s.5-8.3 6.7-8.3 69.4.1 69.4.1 7.2.2 7.2 8.2v50.9s-1.6 6.9-7 7.1l-59.4.3L8.3 88.5z"/></clipPath><clipPath id="clip_frame17_middle"><path d="M8.3 88.5V13.8s.5-8.3 6.7-8.3 69.4.1 69.4.1 7.2.2 7.2 8.2v50.9s-1.6 6.9-7 7.1l-59.4.3L8.3 88.5z"/></clipPath><clipPath id="clip_frame17_bottom"><path d="M8.3 88.5V13.8s.5-8.3 6.7-8.3 69.4.1 69.4.1 7.2.2 7.2 8.2v50.9s-1.6 6.9-7 7.1l-59.4.3L8.3 88.5z"/></clipPath></defs><path d="M8.3 88.5V13.8s.5-8.3 6.7-8.3 69.4.1 69.4.1 7.2.2 7.2 8.2v50.9s-1.6 6.9-7 7.1l-59.4.3L8.3 88.5z" fill="#ffffff" stroke="#000000" stroke-width="8" stroke-miterlimit="10"/><path clip-path="url(#clip_frame17_fill)" d="M6.4 43.077s25.8-11.511 45.9 0c20.1 11.511 41.4-3.567 41.4-3.567l-1 56.59H6.4V43.077z" fill="#000000"/><path clip-path="url(#clip_frame17_top)" d="M2.9 22.6h72.8" fill="#ffffff" stroke="#ffffff" stroke-width="8" stroke-dasharray="0,72.8" stroke-dashoffset="72.8" stroke-miterlimit="10"/><path clip-path="url(#clip_frame17_middle)" d="M-3.1 39.1h72.8" fill="#ffffff" stroke="#ffffff" stroke-width="8" stroke-dasharray="0,72.8" stroke-dashoffset="72.8" stroke-miterlimit="10"/><path clip-path="url(#clip_frame17_bottom)" d="M-10.1 55.6h72.8" fill="#ffffff" stroke="#ffffff" stroke-width="8" stroke-dasharray="0,72.8" stroke-dashoffset="72.8" stroke-miterlimit="10"/></g><g transform="translate(1800)"><defs><clipPath id="clip_frame18_fill"><path d="M8.3 88.5V13.8s.5-8.3 6.7-8.3 69.4.1 69.4.1 7.2.2 7.2 8.2v50.9s-1.6 6.9-7 7.1l-59.4.3L8.3 88.5z"/></clipPath><clipPath id="clip_frame18_top"><path d="M8.3 88.5V13.8s.5-8.3 6.7-8.3 69.4.1 69.4.1 7.2.2 7.2 8.2v50.9s-1.6 6.9-7 7.1l-59.4.3L8.3 88.5z"/></clipPath><clipPath id="clip_frame18_middle"><path d="M8.3 88.5V13.8s.5-8.3 6.7-8.3 69.4.1 69.4.1 7.2.2 7.2 8.2v50.9s-1.6 6.9-7 7.1l-59.4.3L8.3 88.5z"/></clipPath><clipPath id="clip_frame18_bottom"><path d="M8.3 88.5V13.8s.5-8.3 6.7-8.3 69.4.1 69.4.1 7.2.2 7.2 8.2v50.9s-1.6 6.9-7 7.1l-59.4.3L8.3 88.5z"/></clipPath></defs><path d="M8.3 88.5V13.8s.5-8.3 6.7-8.3 69.4.1 69.4.1 7.2.2 7.2 8.2v50.9s-1.6 6.9-7 7.1l-59.4.3L8.3 88.5z" fill="#ffffff" stroke="#000000" stroke-width="8" stroke-miterlimit="10"/><path clip-path="url(#clip_frame18_fill)" d="M6.4 38.429s25.8-12.518 45.9 0c20.1 12.519 41.4-3.882 41.4-3.882l-1 61.553H6.4V38.429z" fill="#000000"/><path clip-path="url(#clip_frame18_top)" d="M2.9 22.6h72.8" fill="#ffffff" stroke="#ffffff" stroke-width="8" stroke-dasharray="0,72.8" stroke-dashoffset="72.8" stroke-miterlimit="10"/><path clip-path="url(#clip_frame18_middle)" d="M-3.1 39.1h72.8" fill="#ffffff" stroke="#ffffff" stroke-width="8" stroke-dasharray="0,72.8" stroke-dashoffset="72.8" stroke-miterlimit="10"/><path clip-path="url(#clip_frame18_bottom)" d="M-10.1 55.6h72.8" fill="#ffffff" stroke="#ffffff" stroke-width="8" stroke-dasharray="0,72.8" stroke-dashoffset="72.8" stroke-miterlimit="10"/></g><g transform="translate(1900)"><defs><clipPath id="clip_frame19_fill"><path d="M8.3 88.5V13.8s.5-8.3 6.7-8.3 69.4.1 69.4.1 7.2.2 7.2 8.2v50.9s-1.6 6.9-7 7.1l-59.4.3L8.3 88.5z"/></clipPath><clipPath id="clip_frame19_top"><path d="M8.3 88.5V13.8s.5-8.3 6.7-8.3 69.4.1 69.4.1 7.2.2 7.2 8.2v50.9s-1.6 6.9-7 7.1l-59.4.3L8.3 88.5z"/></clipPath><clipPath id="clip_frame19_middle"><path d="M8.3 88.5V13.8s.5-8.3 6.7-8.3 69.4.1 69.4.1 7.2.2 7.2 8.2v50.9s-1.6 6.9-7 7.1l-59.4.3L8.3 88.5z"/></clipPath><clipPath id="clip_frame19_bottom"><path d="M8.3 88.5V13.8s.5-8.3 6.7-8.3 69.4.1 69.4.1 7.2.2 7.2 8.2v50.9s-1.6 6.9-7 7.1l-59.4.3L8.3 88.5z"/></clipPath></defs><path d="M8.3 88.5V13.8s.5-8.3 6.7-8.3 69.4.1 69.4.1 7.2.2 7.2 8.2v50.9s-1.6 6.9-7 7.1l-59.4.3L8.3 88.5z" fill="#ffffff" stroke="#000000" stroke-width="8" stroke-miterlimit="10"/><path clip-path="url(#clip_frame19_fill)" d="M6.4 34.167s25.8-13.443 45.9 0c20.1 13.442 41.4-4.172 41.4-4.172l-1 66.105H6.4V34.167z" fill="#000000"/><path clip-path="url(#clip_frame19_top)" d="M2.9 22.6h72.8" fill="#ffffff" stroke="#ffffff" stroke-width="8" stroke-dasharray="0,72.8" stroke-dashoffset="72.8" stroke-miterlimit="10"/><path clip-path="url(#clip_frame19_middle)" d="M-3.1 39.1h72.8" fill="#ffffff" stroke="#ffffff" stroke-width="8" stroke-dasharray="0,72.8" stroke-dashoffset="72.8" stroke-miterlimit="10"/><path clip-path="url(#clip_frame19_bottom)" d="M-10.1 55.6h72.8" fill="#ffffff" stroke="#ffffff" stroke-width="8" stroke-dasharray="0,72.8" stroke-dashoffset="72.8" stroke-miterlimit="10"/></g><g transform="translate(2000)"><defs><clipPath id="clip_frame20_fill"><path d="M8.3 88.5V13.8s.5-8.3 6.7-8.3 69.4.1 69.4.1 7.2.2 7.2 8.2v50.9s-1.6 6.9-7 7.1l-59.4.3L8.3 88.5z"/></clipPath><clipPath id="clip_frame20_top"><path d="M8.3 88.5V13.8s.5-8.3 6.7-8.3 69.4.1 69.4.1 7.2.2 7.2 8.2v50.9s-1.6 6.9-7 7.1l-59.4.3L8.3 88.5z"/></clipPath><clipPath id="clip_frame20_middle"><path d="M8.3 88.5V13.8s.5-8.3 6.7-8.3 69.4.1 69.4.1 7.2.2 7.2 8.2v50.9s-1.6 6.9-7 7.1l-59.4.3L8.3 88.5z"/></clipPath><clipPath id="clip_frame20_bottom"><path d="M8.3 88.5V13.8s.5-8.3 6.7-8.3 69.4.1 69.4.1 7.2.2 7.2 8.2v50.9s-1.6 6.9-7 7.1l-59.4.3L8.3 88.5z"/></clipPath></defs><path d="M8.3 88.5V13.8s.5-8.3 6.7-8.3 69.4.1 69.4.1 7.2.2 7.2 8.2v50.9s-1.6 6.9-7 7.1l-59.4.3L8.3 88.5z" fill="#ffffff" stroke="#000000" stroke-width="8" stroke-miterlimit="10"/><path clip-path="url(#clip_frame20_fill)" d="M6.4 30.288s25.8-14.283 45.9 0c20.1 14.284 41.4-4.436 41.4-4.436l-1 70.248H6.4V30.288z" fill="#000000"/><path clip-path="url(#clip_frame20_top)" d="M2.9 22.6h72.8" fill="#ffffff" stroke="#ffffff" stroke-width="8" stroke-dasharray="0,72.8" stroke-dashoffset="72.8" stroke-miterlimit="10"/><path clip-path="url(#clip_frame20_middle)" d="M-3.1 39.1h72.8" fill="#ffffff" stroke="#ffffff" stroke-width="8" stroke-dasharray="0,72.8" stroke-dashoffset="72.8" stroke-miterlimit="10"/><path clip-path="url(#clip_frame20_bottom)" d="M-10.1 55.6h72.8" fill="#ffffff" stroke="#ffffff" stroke-width="8" stroke-dasharray="0,72.8" stroke-dashoffset="72.8" stroke-miterlimit="10"/></g><g transform="translate(2100)"><defs><clipPath id="clip_frame21_fill"><path d="M8.3 88.5V13.8s.5-8.3 6.7-8.3 69.4.1 69.4.1 7.2.2 7.2 8.2v50.9s-1.6 6.9-7 7.1l-59.4.3L8.3 88.5z"/></clipPath><clipPath id="clip_frame21_top"><path d="M8.3 88.5V13.8s.5-8.3 6.7-8.3 69.4.1 69.4.1 7.2.2 7.2 8.2v50.9s-1.6 6.9-7 7.1l-59.4.3L8.3 88.5z"/></clipPath><clipPath id="clip_frame21_middle"><path d="M8.3 88.5V13.8s.5-8.3 6.7-8.3 69.4.1 69.4.1 7.2.2 7.2 8.2v50.9s-1.6 6.9-7 7.1l-59.4.3L8.3 88.5z"/></clipPath><clipPath id="clip_frame21_bottom"><path d="M8.3 88.5V13.8s.5-8.3 6.7-8.3 69.4.1 69.4.1 7.2.2 7.2 8.2v50.9s-1.6 6.9-7 7.1l-59.4.3L8.3 88.5z"/></clipPath></defs><path d="M8.3 88.5V13.8s.5-8.3 6.7-8.3 69.4.1 69.4.1 7.2.2 7.2 8.2v50.9s-1.6 6.9-7 7.1l-59.4.3L8.3 88.5z" fill="#ffffff" stroke="#000000" stroke-width="8" stroke-miterlimit="10"/><path clip-path="url(#clip_frame21_fill)" d="M6.4 26.774s25.8-15.045 45.9 0c20.1 15.045 41.4-4.675 41.4-4.675l-1 74.001H6.4V26.774z" fill="#000000"/><path clip-path="url(#clip_frame21_top)" d="M2.9 22.6h72.8" fill="#ffffff" stroke="#ffffff" stroke-width="8" stroke-dasharray="0,72.8" stroke-dashoffset="72.8" stroke-miterlimit="10"/><path clip-path="url(#clip_frame21_middle)" d="M-3.1 39.1h72.8" fill="#ffffff" stroke="#ffffff" stroke-width="8" stroke-dasharray="0,72.8" stroke-dashoffset="72.8" stroke-miterlimit="10"/><path clip-path="url(#clip_frame21_bottom)" d="M-10.1 55.6h72.8" fill="#ffffff" stroke="#ffffff" stroke-width="8" stroke-dasharray="0,72.8" stroke-dashoffset="72.8" stroke-miterlimit="10"/></g><g transform="translate(2200)"><defs><clipPath id="clip_frame22_fill"><path d="M8.3 88.5V13.8s.5-8.3 6.7-8.3 69.4.1 69.4.1 7.2.2 7.2 8.2v50.9s-1.6 6.9-7 7.1l-59.4.3L8.3 88.5z"/></clipPath><clipPath id="clip_frame22_top"><path d="M8.3 88.5V13.8s.5-8.3 6.7-8.3 69.4.1 69.4.1 7.2.2 7.2 8.2v50.9s-1.6 6.9-7 7.1l-59.4.3L8.3 88.5z"/></clipPath><clipPath id="clip_frame22_middle"><path d="M8.3 88.5V13.8s.5-8.3 6.7-8.3 69.4.1 69.4.1 7.2.2 7.2 8.2v50.9s-1.6 6.9-7 7.1l-59.4.3L8.3 88.5z"/></clipPath><clipPath id="clip_frame22_bottom"><path d="M8.3 88.5V13.8s.5-8.3 6.7-8.3 69.4.1 69.4.1 7.2.2 7.2 8.2v50.9s-1.6 6.9-7 7.1l-59.4.3L8.3 88.5z"/></clipPath></defs><path d="M8.3 88.5V13.8s.5-8.3 6.7-8.3 69.4.1 69.4.1 7.2.2 7.2 8.2v50.9s-1.6 6.9-7 7.1l-59.4.3L8.3 88.5z" fill="#ffffff" stroke="#000000" stroke-width="8" stroke-miterlimit="10"/><path clip-path="url(#clip_frame22_fill)" d="M6.4 23.595s25.8-15.735 45.9 0c20.1 15.734 41.4-4.891 41.4-4.891l-1 77.396H6.4V23.595z" fill="#000000"/><path clip-path="url(#clip_frame22_top)" d="M2.9 22.6h72.8" fill="#ffffff" stroke="#ffffff" stroke-width="8" stroke-dasharray="0,72.8" stroke-dashoffset="72.8" stroke-miterlimit="10"/><path clip-path="url(#clip_frame22_middle)" d="M-3.1 39.1h72.8" fill="#ffffff" stroke="#ffffff" stroke-width="8" stroke-dasharray="0,72.8" stroke-dashoffset="72.8" stroke-miterlimit="10"/><path clip-path="url(#clip_frame22_bottom)" d="M-10.1 55.6h72.8" fill="#ffffff" stroke="#ffffff" stroke-width="8" stroke-dasharray="0,72.8" stroke-dashoffset="72.8" stroke-miterlimit="10"/></g><g transform="translate(2300)"><defs><clipPath id="clip_frame23_fill"><path d="M8.3 88.5V13.8s.5-8.3 6.7-8.3 69.4.1 69.4.1 7.2.2 7.2 8.2v50.9s-1.6 6.9-7 7.1l-59.4.3L8.3 88.5z"/></clipPath><clipPath id="clip_frame23_top"><path d="M8.3 88.5V13.8s.5-8.3 6.7-8.3 69.4.1 69.4.1 7.2.2 7.2 8.2v50.9s-1.6 6.9-7 7.1l-59.4.3L8.3 88.5z"/></clipPath><clipPath id="clip_frame23_middle"><path d="M8.3 88.5V13.8s.5-8.3 6.7-8.3 69.4.1 69.4.1 7.2.2 7.2 8.2v50.9s-1.6 6.9-7 7.1l-59.4.3L8.3 88.5z"/></clipPath><clipPath id="clip_frame23_bottom"><path d="M8.3 88.5V13.8s.5-8.3 6.7-8.3 69.4.1 69.4.1 7.2.2 7.2 8.2v50.9s-1.6 6.9-7 7.1l-59.4.3L8.3 88.5z"/></clipPath></defs><path d="M8.3 88.5V13.8s.5-8.3 6.7-8.3 69.4.1 69.4.1 7.2.2 7.2 8.2v50.9s-1.6 6.9-7 7.1l-59.4.3L8.3 88.5z" fill="#ffffff" stroke="#000000" stroke-width="8" stroke-miterlimit="10"/><path clip-path="url(#clip_frame23_fill)" d="M6.4 20.72s25.8-16.358 45.9 0c20.1 16.358 41.4-5.087 41.4-5.087l-1 80.467H6.4V20.72z" fill="#000000"/><path clip-path="url(#clip_frame23_top)" d="M2.9 22.6h72.8" fill="#ffffff" stroke="#ffffff" stroke-width="8" stroke-dasharray="0,72.8" stroke-dashoffset="72.8" stroke-miterlimit="10"/><path clip-path="url(#clip_frame23_middle)" d="M-3.1 39.1h72.8" fill="#ffffff" stroke="#ffffff" stroke-width="8" stroke-dasharray="0,72.8" stroke-dashoffset="72.8" stroke-miterlimit="10"/><path clip-path="url(#clip_frame23_bottom)" d="M-10.1 55.6h72.8" fill="#ffffff" stroke="#ffffff" stroke-width="8" stroke-dasharray="0,72.8" stroke-dashoffset="72.8" stroke-miterlimit="10"/></g><g transform="translate(2400)"><defs><clipPath id="clip_frame24_fill"><path d="M8.3 88.5V13.8s.5-8.3 6.7-8.3 69.4.1 69.4.1 7.2.2 7.2 8.2v50.9s-1.6 6.9-7 7.1l-59.4.3L8.3 88.5z"/></clipPath><clipPath id="clip_frame24_top"><path d="M8.3 88.5V13.8s.5-8.3 6.7-8.3 69.4.1 69.4.1 7.2.2 7.2 8.2v50.9s-1.6 6.9-7 7.1l-59.4.3L8.3 88.5z"/></clipPath><clipPath id="clip_frame24_middle"><path d="M8.3 88.5V13.8s.5-8.3 6.7-8.3 69.4.1 69.4.1 7.2.2 7.2 8.2v50.9s-1.6 6.9-7 7.1l-59.4.3L8.3 88.5z"/></clipPath><clipPath id="clip_frame24_bottom"><path d="M8.3 88.5V13.8s.5-8.3 6.7-8.3 69.4.1 69.4.1 7.2.2 7.2 8.2v50.9s-1.6 6.9-7 7.1l-59.4.3L8.3 88.5z"/></clipPath></defs><path d="M8.3 88.5V13.8s.5-8.3 6.7-8.3 69.4.1 69.4.1 7.2.2 7.2 8.2v50.9s-1.6 6.9-7 7.1l-59.4.3L8.3 88.5z" fill="#ffffff" stroke="#000000" stroke-width="8" stroke-miterlimit="10"/><path clip-path="url(#clip_frame24_fill)" d="M6.4 18.12s25.8-16.922 45.9 0c20.1 16.921 41.4-5.264 41.4-5.264l-1 83.244H6.4V18.12z" fill="#000000"/><path clip-path="url(#clip_frame24_top)" d="M2.9 22.6h72.8" fill="#ffffff" stroke="#ffffff" stroke-width="8" stroke-dasharray="0,72.8" stroke-dashoffset="72.8" stroke-miterlimit="10"/><path clip-path="url(#clip_frame24_middle)" d="M-3.1 39.1h72.8" fill="#ffffff" stroke="#ffffff" stroke-width="8" stroke-dasharray="0,72.8" stroke-dashoffset="72.8" stroke-miterlimit="10"/><path clip-path="url(#clip_frame24_bottom)" d="M-10.1 55.6h72.8" fill="#ffffff" stroke="#ffffff" stroke-width="8" stroke-dasharray="0,72.8" stroke-dashoffset="72.8" stroke-miterlimit="10"/></g><g transform="translate(2500)"><defs><clipPath id="clip_frame25_fill"><path d="M8.3 88.5V13.8s.5-8.3 6.7-8.3 69.4.1 69.4.1 7.2.2 7.2 8.2v50.9s-1.6 6.9-7 7.1l-59.4.3L8.3 88.5z"/></clipPath><clipPath id="clip_frame25_top"><path d="M8.3 88.5V13.8s.5-8.3 6.7-8.3 69.4.1 69.4.1 7.2.2 7.2 8.2v50.9s-1.6 6.9-7 7.1l-59.4.3L8.3 88.5z"/></clipPath><clipPath id="clip_frame25_middle"><path d="M8.3 88.5V13.8s.5-8.3 6.7-8.3 69.4.1 69.4.1 7.2.2 7.2 8.2v50.9s-1.6 6.9-7 7.1l-59.4.3L8.3 88.5z"/></clipPath><clipPath id="clip_frame25_bottom"><path d="M8.3 88.5V13.8s.5-8.3 6.7-8.3 69.4.1 69.4.1 7.2.2 7.2 8.2v50.9s-1.6 6.9-7 7.1l-59.4.3L8.3 88.5z"/></clipPath></defs><path d="M8.3 88.5V13.8s.5-8.3 6.7-8.3 69.4.1 69.4.1 7.2.2 7.2 8.2v50.9s-1.6 6.9-7 7.1l-59.4.3L8.3 88.5z" fill="#ffffff" stroke="#000000" stroke-width="8" stroke-miterlimit="10"/><path clip-path="url(#clip_frame25_fill)" d="M6.4 15.766s25.8-17.432 45.9 0c20.1 17.432 41.4-5.424 41.4-5.424l-1 85.758H6.4V15.766z" fill="#000000"/><path clip-path="url(#clip_frame25_top)" d="M2.9 22.6h72.8" fill="#ffffff" stroke="#ffffff" stroke-width="8" stroke-dasharray="0,72.8" stroke-dashoffset="72.8" stroke-miterlimit="10"/><path clip-path="url(#clip_frame25_middle)" d="M-3.1 39.1h72.8" fill="#ffffff" stroke="#ffffff" stroke-width="8" stroke-dasharray="0,72.8" stroke-dashoffset="72.8" stroke-miterlimit="10"/><path clip-path="url(#clip_frame25_bottom)" d="M-10.1 55.6h72.8" fill="#ffffff" stroke="#ffffff" stroke-width="8" stroke-dasharray="0,72.8" stroke-dashoffset="72.8" stroke-miterlimit="10"/></g><g transform="translate(2600)"><defs><clipPath id="clip_frame26_fill"><path d="M8.3 88.5V13.8s.5-8.3 6.7-8.3 69.4.1 69.4.1 7.2.2 7.2 8.2v50.9s-1.6 6.9-7 7.1l-59.4.3L8.3 88.5z"/></clipPath><clipPath id="clip_frame26_top"><path d="M8.3 88.5V13.8s.5-8.3 6.7-8.3 69.4.1 69.4.1 7.2.2 7.2 8.2v50.9s-1.6 6.9-7 7.1l-59.4.3L8.3 88.5z"/></clipPath><clipPath id="clip_frame26_middle"><path d="M8.3 88.5V13.8s.5-8.3 6.7-8.3 69.4.1 69.4.1 7.2.2 7.2 8.2v50.9s-1.6 6.9-7 7.1l-59.4.3L8.3 88.5z"/></clipPath><clipPath id="clip_frame26_bottom"><path d="M8.3 88.5V13.8s.5-8.3 6.7-8.3 69.4.1 69.4.1 7.2.2 7.2 8.2v50.9s-1.6 6.9-7 7.1l-59.4.3L8.3 88.5z"/></clipPath></defs><path d="M8.3 88.5V13.8s.5-8.3 6.7-8.3 69.4.1 69.4.1 7.2.2 7.2 8.2v50.9s-1.6 6.9-7 7.1l-59.4.3L8.3 88.5z" fill="#ffffff" stroke="#000000" stroke-width="8" stroke-miterlimit="10"/><path clip-path="url(#clip_frame26_fill)" d="M6.4 13.635s25.8-17.894 45.9 0c20.1 17.893 41.4-5.569 41.4-5.569l-1 88.034H6.4V13.635z" fill="#000000"/><path clip-path="url(#clip_frame26_top)" d="M2.9 22.6h72.8" fill="#ffffff" stroke="#ffffff" stroke-width="8" stroke-dasharray="0,72.8" stroke-dashoffset="72.8" stroke-miterlimit="10"/><path clip-path="url(#clip_frame26_middle)" d="M-3.1 39.1h72.8" fill="#ffffff" stroke="#ffffff" stroke-width="8" stroke-dasharray="0,72.8" stroke-dashoffset="72.8" stroke-miterlimit="10"/><path clip-path="url(#clip_frame26_bottom)" d="M-10.1 55.6h72.8" fill="#ffffff" stroke="#ffffff" stroke-width="8" stroke-dasharray="0,72.8" stroke-dashoffset="72.8" stroke-miterlimit="10"/></g><g transform="translate(2700)"><defs><clipPath id="clip_frame27_fill"><path d="M8.3 88.5V13.8s.5-8.3 6.7-8.3 69.4.1 69.4.1 7.2.2 7.2 8.2v50.9s-1.6 6.9-7 7.1l-59.4.3L8.3 88.5z"/></clipPath><clipPath id="clip_frame27_top"><path d="M8.3 88.5V13.8s.5-8.3 6.7-8.3 69.4.1 69.4.1 7.2.2 7.2 8.2v50.9s-1.6 6.9-7 7.1l-59.4.3L8.3 88.5z"/></clipPath><clipPath id="clip_frame27_middle"><path d="M8.3 88.5V13.8s.5-8.3 6.7-8.3 69.4.1 69.4.1 7.2.2 7.2 8.2v50.9s-1.6 6.9-7 7.1l-59.4.3L8.3 88.5z"/></clipPath><clipPath id="clip_frame27_bottom"><path d="M8.3 88.5V13.8s.5-8.3 6.7-8.3 69.4.1 69.4.1 7.2.2 7.2 8.2v50.9s-1.6 6.9-7 7.1l-59.4.3L8.3 88.5z"/></clipPath></defs><path d="M8.3 88.5V13.8s.5-8.3 6.7-8.3 69.4.1 69.4.1 7.2.2 7.2 8.2v50.9s-1.6 6.9-7 7.1l-59.4.3L8.3 88.5z" fill="#ffffff" stroke="#000000" stroke-width="8" stroke-miterlimit="10"/><path clip-path="url(#clip_frame27_fill)" d="M6.4 11.703s25.8-18.312 45.9 0c20.1 18.313 41.4-5.7 41.4-5.7l-1 90.097H6.4V11.703z" fill="#000000"/><path clip-path="url(#clip_frame27_top)" d="M2.9 22.6h72.8" fill="#ffffff" stroke="#ffffff" stroke-width="8" stroke-dasharray="0,72.8" stroke-dashoffset="72.8" stroke-miterlimit="10"/><path clip-path="url(#clip_frame27_middle)" d="M-3.1 39.1h72.8" fill="#ffffff" stroke="#ffffff" stroke-width="8" stroke-dasharray="0,72.8" stroke-dashoffset="72.8" stroke-miterlimit="10"/><path clip-path="url(#clip_frame27_bottom)" d="M-10.1 55.6h72.8" fill="#ffffff" stroke="#ffffff" stroke-width="8" stroke-dasharray="0,72.8" stroke-dashoffset="72.8" stroke-miterlimit="10"/></g><g transform="translate(2800)"><defs><clipPath id="clip_frame28_fill"><path d="M8.3 88.5V13.8s.5-8.3 6.7-8.3 69.4.1 69.4.1 7.2.2 7.2 8.2v50.9s-1.6 6.9-7 7.1l-59.4.3L8.3 88.5z"/></clipPath><clipPath id="clip_frame28_top"><path d="M8.3 88.5V13.8s.5-8.3 6.7-8.3 69.4.1 69.4.1 7.2.2 7.2 8.2v50.9s-1.6 6.9-7 7.1l-59.4.3L8.3 88.5z"/></clipPath><clipPath id="clip_frame28_middle"><path d="M8.3 88.5V13.8s.5-8.3 6.7-8.3 69.4.1 69.4.1 7.2.2 7.2 8.2v50.9s-1.6 6.9-7 7.1l-59.4.3L8.3 88.5z"/></clipPath><clipPath id="clip_frame28_bottom"><path d="M8.3 88.5V13.8s.5-8.3 6.7-8.3 69.4.1 69.4.1 7.2.2 7.2 8.2v50.9s-1.6 6.9-7 7.1l-59.4.3L8.3 88.5z"/></clipPath></defs><path d="M8.3 88.5V13.8s.5-8.3 6.7-8.3 69.4.1 69.4.1 7.2.2 7.2 8.2v50.9s-1.6 6.9-7 7.1l-59.4.3L8.3 88.5z" fill="#ffffff" stroke="#000000" stroke-width="8" stroke-miterlimit="10"/><path clip-path="url(#clip_frame28_fill)" d="M6.4 9.953s25.8-18.692 45.9 0c20.1 18.692 41.4-5.819 41.4-5.819l-1 91.966H6.4V9.953z" fill="#000000"/><path clip-path="url(#clip_frame28_top)" d="M2.9 22.6h72.8" fill="#ffffff" stroke="#ffffff" stroke-width="8" stroke-dasharray="0,72.8" stroke-dashoffset="72.8" stroke-miterlimit="10"/><path clip-path="url(#clip_frame28_middle)" d="M-3.1 39.1h72.8" fill="#ffffff" stroke="#ffffff" stroke-width="8" stroke-dasharray="0,72.8" stroke-dashoffset="72.8" stroke-miterlimit="10"/><path clip-path="url(#clip_frame28_bottom)" d="M-10.1 55.6h72.8" fill="#ffffff" stroke="#ffffff" stroke-width="8" stroke-dasharray="0,72.8" stroke-dashoffset="72.8" stroke-miterlimit="10"/></g><g transform="translate(2900)"><defs><clipPath id="clip_frame29_fill"><path d="M8.3 88.5V13.8s.5-8.3 6.7-8.3 69.4.1 69.4.1 7.2.2 7.2 8.2v50.9s-1.6 6.9-7 7.1l-59.4.3L8.3 88.5z"/></clipPath><clipPath id="clip_frame29_top"><path d="M8.3 88.5V13.8s.5-8.3 6.7-8.3 69.4.1 69.4.1 7.2.2 7.2 8.2v50.9s-1.6 6.9-7 7.1l-59.4.3L8.3 88.5z"/></clipPath><clipPath id="clip_frame29_middle"><path d="M8.3 88.5V13.8s.5-8.3 6.7-8.3 69.4.1 69.4.1 7.2.2 7.2 8.2v50.9s-1.6 6.9-7 7.1l-59.4.3L8.3 88.5z"/></clipPath><clipPath id="clip_frame29_bottom"><path d="M8.3 88.5V13.8s.5-8.3 6.7-8.3 69.4.1 69.4.1 7.2.2 7.2 8.2v50.9s-1.6 6.9-7 7.1l-59.4.3L8.3 88.5z"/></clipPath></defs><path d="M8.3 88.5V13.8s.5-8.3 6.7-8.3 69.4.1 69.4.1 7.2.2 7.2 8.2v50.9s-1.6 6.9-7 7.1l-59.4.3L8.3 88.5z" fill="#ffffff" stroke="#000000" stroke-width="8" stroke-miterlimit="10"/><path clip-path="url(#clip_frame29_fill)" d="M6.4 8.367s25.8-19.036 45.9 0C72.4 27.402 93.7 2.44 93.7 2.44l-1 93.66H6.4V8.367z" fill="#000000"/><path clip-path="url(#clip_frame29_top)" d="M2.9 22.6h72.8" fill="#ffffff" stroke="#ffffff" stroke-width="8" stroke-dasharray="0,72.8" stroke-dashoffset="72.8" stroke-miterlimit="10"/><path clip-path="url(#clip_frame29_middle)" d="M-3.1 39.1h72.8" fill="#ffffff" stroke="#ffffff" stroke-width="8" stroke-dasharray="0,72.8" stroke-dashoffset="72.8" stroke-miterlimit="10"/><path clip-path="url(#clip_frame29_bottom)" d="M-10.1 55.6h72.8" fill="#ffffff" stroke="#ffffff" stroke-width="8" stroke-dasharray="0,72.8" stroke-dashoffset="72.8" stroke-miterlimit="10"/></g><g transform="translate(3000)"><defs><clipPath id="clip_frame30_fill"><path d="M8.3 88.5V13.8s.5-8.3 6.7-8.3 69.4.1 69.4.1 7.2.2 7.2 8.2v50.9s-1.6 6.9-7 7.1l-59.4.3L8.3 88.5z"/></clipPath><clipPath id="clip_frame30_top"><path d="M8.3 88.5V13.8s.5-8.3 6.7-8.3 69.4.1 69.4.1 7.2.2 7.2 8.2v50.9s-1.6 6.9-7 7.1l-59.4.3L8.3 88.5z"/></clipPath><clipPath id="clip_frame30_middle"><path d="M8.3 88.5V13.8s.5-8.3 6.7-8.3 69.4.1 69.4.1 7.2.2 7.2 8.2v50.9s-1.6 6.9-7 7.1l-59.4.3L8.3 88.5z"/></clipPath><clipPath id="clip_frame30_bottom"><path d="M8.3 88.5V13.8s.5-8.3 6.7-8.3 69.4.1 69.4.1 7.2.2 7.2 8.2v50.9s-1.6 6.9-7 7.1l-59.4.3L8.3 88.5z"/></clipPath></defs><path d="M8.3 88.5V13.8s.5-8.3 6.7-8.3 69.4.1 69.4.1 7.2.2 7.2 8.2v50.9s-1.6 6.9-7 7.1l-59.4.3L8.3 88.5z" fill="#ffffff" stroke="#000000" stroke-width="8" stroke-miterlimit="10"/><path clip-path="url(#clip_frame30_fill)" d="M6.4 6.93s25.8-19.347 45.9 0C72.4 26.277 93.7.905 93.7.905l-1 95.195H6.4V6.93z" fill="#000000"/><path clip-path="url(#clip_frame30_top)" d="M2.9 22.6h72.8" fill="#ffffff" stroke="#ffffff" stroke-width="8" stroke-dasharray="0,72.8" stroke-dashoffset="72.8" stroke-miterlimit="10"/><path clip-path="url(#clip_frame30_middle)" d="M-3.1 39.1h72.8" fill="#ffffff" stroke="#ffffff" stroke-width="8" stroke-dasharray="0,72.8" stroke-dashoffset="72.8" stroke-miterlimit="10"/><path clip-path="url(#clip_frame30_bottom)" d="M-10.1 55.6h72.8" fill="#ffffff" stroke="#ffffff" stroke-width="8" stroke-dasharray="0,72.8" stroke-dashoffset="72.8" stroke-miterlimit="10"/></g><g transform="translate(3100)"><defs><clipPath id="clip_frame31_fill"><path d="M8.3 88.5V13.8s.5-8.3 6.7-8.3 69.4.1 69.4.1 7.2.2 7.2 8.2v50.9s-1.6 6.9-7 7.1l-59.4.3L8.3 88.5z"/></clipPath><clipPath id="clip_frame31_top"><path d="M8.3 88.5V13.8s.5-8.3 6.7-8.3 69.4.1 69.4.1 7.2.2 7.2 8.2v50.9s-1.6 6.9-7 7.1l-59.4.3L8.3 88.5z"/></clipPath><clipPath id="clip_frame31_middle"><path d="M8.3 88.5V13.8s.5-8.3 6.7-8.3 69.4.1 69.4.1 7.2.2 7.2 8.2v50.9s-1.6 6.9-7 7.1l-59.4.3L8.3 88.5z"/></clipPath><clipPath id="clip_frame31_bottom"><path d="M8.3 88.5V13.8s.5-8.3 6.7-8.3 69.4.1 69.4.1 7.2.2 7.2 8.2v50.9s-1.6 6.9-7 7.1l-59.4.3L8.3 88.5z"/></clipPath></defs><path d="M8.3 88.5V13.8s.5-8.3 6.7-8.3 69.4.1 69.4.1 7.2.2 7.2 8.2v50.9s-1.6 6.9-7 7.1l-59.4.3L8.3 88.5z" fill="#ffffff" stroke="#000000" stroke-width="8" stroke-miterlimit="10"/><path clip-path="url(#clip_frame31_fill)" d="M6.4 5.63s25.8-19.629 45.9 0C72.4 25.259 93.7-.483 93.7-.483l-1 96.583H6.4V5.63z" fill="#000000"/><path clip-path="url(#clip_frame31_top)" d="M2.9 22.6h72.8" fill="#ffffff" stroke="#ffffff" stroke-width="8" stroke-dasharray="0,72.8" stroke-dashoffset="72.8" stroke-miterlimit="10"/><path clip-path="url(#clip_frame31_middle)" d="M-3.1 39.1h72.8" fill="#ffffff" stroke="#ffffff" stroke-width="8" stroke-dasharray="0,72.8" stroke-dashoffset="72.8" stroke-miterlimit="10"/><path clip-path="url(#clip_frame31_bottom)" d="M-10.1 55.6h72.8" fill="#ffffff" stroke="#ffffff" stroke-width="8" stroke-dasharray="0,72.8" stroke-dashoffset="72.8" stroke-miterlimit="10"/></g><g transform="translate(3200)"><defs><clipPath id="clip_frame32_fill"><path d="M8.3 88.5V13.8s.5-8.3 6.7-8.3 69.4.1 69.4.1 7.2.2 7.2 8.2v50.9s-1.6 6.9-7 7.1l-59.4.3L8.3 88.5z"/></clipPath><clipPath id="clip_frame32_top"><path d="M8.3 88.5V13.8s.5-8.3 6.7-8.3 69.4.1 69.4.1 7.2.2 7.2 8.2v50.9s-1.6 6.9-7 7.1l-59.4.3L8.3 88.5z"/></clipPath><clipPath id="clip_frame32_middle"><path d="M8.3 88.5V13.8s.5-8.3 6.7-8.3 69.4.1 69.4.1 7.2.2 7.2 8.2v50.9s-1.6 6.9-7 7.1l-59.4.3L8.3 88.5z"/></clipPath><clipPath id="clip_frame32_bottom"><path d="M8.3 88.5V13.8s.5-8.3 6.7-8.3 69.4.1 69.4.1 7.2.2 7.2 8.2v50.9s-1.6 6.9-7 7.1l-59.4.3L8.3 88.5z"/></clipPath></defs><path d="M8.3 88.5V13.8s.5-8.3 6.7-8.3 69.4.1 69.4.1 7.2.2 7.2 8.2v50.9s-1.6 6.9-7 7.1l-59.4.3L8.3 88.5z" fill="#ffffff" stroke="#000000" stroke-width="8" stroke-miterlimit="10"/><path clip-path="url(#clip_frame32_fill)" d="M6.4 4.455s25.8-19.884 45.9 0c20.1 19.884 41.4-6.193 41.4-6.193l-1 97.838H6.4V4.455z" fill="#000000"/><path clip-path="url(#clip_frame32_top)" d="M2.9 22.6h72.8" fill="#ffffff" stroke="#ffffff" stroke-width="8" stroke-dasharray="0,72.8" stroke-dashoffset="72.8" stroke-miterlimit="10"/><path clip-path="url(#clip_frame32_middle)" d="M-3.1 39.1h72.8" fill="#ffffff" stroke="#ffffff" stroke-width="8" stroke-dasharray="0,72.8" stroke-dashoffset="72.8" stroke-miterlimit="10"/><path clip-path="url(#clip_frame32_bottom)" d="M-10.1 55.6h72.8" fill="#ffffff" stroke="#ffffff" stroke-width="8" stroke-dasharray="0,72.8" stroke-dashoffset="72.8" stroke-miterlimit="10"/></g><g transform="translate(3300)"><defs><clipPath id="clip_frame33_fill"><path d="M8.3 88.5V13.8s.5-8.3 6.7-8.3 69.4.1 69.4.1 7.2.2 7.2 8.2v50.9s-1.6 6.9-7 7.1l-59.4.3L8.3 88.5z"/></clipPath><clipPath id="clip_frame33_top"><path d="M8.3 88.5V13.8s.5-8.3 6.7-8.3 69.4.1 69.4.1 7.2.2 7.2 8.2v50.9s-1.6 6.9-7 7.1l-59.4.3L8.3 88.5z"/></clipPath><clipPath id="clip_frame33_middle"><path d="M8.3 88.5V13.8s.5-8.3 6.7-8.3 69.4.1 69.4.1 7.2.2 7.2 8.2v50.9s-1.6 6.9-7 7.1l-59.4.3L8.3 88.5z"/></clipPath><clipPath id="clip_frame33_bottom"><path d="M8.3 88.5V13.8s.5-8.3 6.7-8.3 69.4.1 69.4.1 7.2.2 7.2 8.2v50.9s-1.6 6.9-7 7.1l-59.4.3L8.3 88.5z"/></clipPath></defs><path d="M8.3 88.5V13.8s.5-8.3 6.7-8.3 69.4.1 69.4.1 7.2.2 7.2 8.2v50.9s-1.6 6.9-7 7.1l-59.4.3L8.3 88.5z" fill="#ffffff" stroke="#000000" stroke-width="8" stroke-miterlimit="10"/><path clip-path="url(#clip_frame33_fill)" d="M6.4 3.395s25.8-20.113 45.9 0C72.4 23.509 93.7-2.87 93.7-2.87l-1 98.97H6.4V3.395z" fill="#000000"/><path clip-path="url(#clip_frame33_top)" d="M2.9 22.6h72.8" fill="#ffffff" stroke="#ffffff" stroke-width="8" stroke-dasharray="0,72.8" stroke-dashoffset="72.8" stroke-miterlimit="10"/><path clip-path="url(#clip_frame33_middle)" d="M-3.1 39.1h72.8" fill="#ffffff" stroke="#ffffff" stroke-width="8" stroke-dasharray="0,72.8" stroke-dashoffset="72.8" stroke-miterlimit="10"/><path clip-path="url(#clip_frame33_bottom)" d="M-10.1 55.6h72.8" fill="#ffffff" stroke="#ffffff" stroke-width="8" stroke-dasharray="0,72.8" stroke-dashoffset="72.8" stroke-miterlimit="10"/></g><g transform="translate(3400)"><defs><clipPath id="clip_frame34_fill"><path d="M8.3 88.5V13.8s.5-8.3 6.7-8.3 69.4.1 69.4.1 7.2.2 7.2 8.2v50.9s-1.6 6.9-7 7.1l-59.4.3L8.3 88.5z"/></clipPath><clipPath id="clip_frame34_top"><path d="M8.3 88.5V13.8s.5-8.3 6.7-8.3 69.4.1 69.4.1 7.2.2 7.2 8.2v50.9s-1.6 6.9-7 7.1l-59.4.3L8.3 88.5z"/></clipPath><clipPath id="clip_frame34_middle"><path d="M8.3 88.5V13.8s.5-8.3 6.7-8.3 69.4.1 69.4.1 7.2.2 7.2 8.2v50.9s-1.6 6.9-7 7.1l-59.4.3L8.3 88.5z"/></clipPath><clipPath id="clip_frame34_bottom"><path d="M8.3 88.5V13.8s.5-8.3 6.7-8.3 69.4.1 69.4.1 7.2.2 7.2 8.2v50.9s-1.6 6.9-7 7.1l-59.4.3L8.3 88.5z"/></clipPath></defs><path d="M8.3 88.5V13.8s.5-8.3 6.7-8.3 69.4.1 69.4.1 7.2.2 7.2 8.2v50.9s-1.6 6.9-7 7.1l-59.4.3L8.3 88.5z" fill="#ffffff" stroke="#000000" stroke-width="8" stroke-miterlimit="10"/><path clip-path="url(#clip_frame34_fill)" d="M6.4 2.442s25.8-20.32 45.9 0c20.1 20.32 41.4-6.33 41.4-6.33l-1 99.988H6.4V2.442z" fill="#000000"/><path clip-path="url(#clip_frame34_top)" d="M2.9 22.6h72.8" fill="#ffffff" stroke="#ffffff" stroke-width="8" stroke-dasharray="0,72.8" stroke-dashoffset="72.8" stroke-miterlimit="10"/><path clip-path="url(#clip_frame34_middle)" d="M-3.1 39.1h72.8" fill="#ffffff" stroke="#ffffff" stroke-width="8" stroke-dasharray="0,72.8" stroke-dashoffset="72.8" stroke-miterlimit="10"/><path clip-path="url(#clip_frame34_bottom)" d="M-10.1 55.6h72.8" fill="#ffffff" stroke="#ffffff" stroke-width="8" stroke-dasharray="0,72.8" stroke-dashoffset="72.8" stroke-miterlimit="10"/></g><g transform="translate(3500)"><defs><clipPath id="clip_frame35_fill"><path d="M8.3 88.5V13.8s.5-8.3 6.7-8.3 69.4.1 69.4.1 7.2.2 7.2 8.2v50.9s-1.6 6.9-7 7.1l-59.4.3L8.3 88.5z"/></clipPath><clipPath id="clip_frame35_top"><path d="M8.3 88.5V13.8s.5-8.3 6.7-8.3 69.4.1 69.4.1 7.2.2 7.2 8.2v50.9s-1.6 6.9-7 7.1l-59.4.3L8.3 88.5z"/></clipPath><clipPath id="clip_frame35_middle"><path d="M8.3 88.5V13.8s.5-8.3 6.7-8.3 69.4.1 69.4.1 7.2.2 7.2 8.2v50.9s-1.6 6.9-7 7.1l-59.4.3L8.3 88.5z"/></clipPath><clipPath id="clip_frame35_bottom"><path d="M8.3 88.5V13.8s.5-8.3 6.7-8.3 69.4.1 69.4.1 7.2.2 7.2 8.2v50.9s-1.6 6.9-7 7.1l-59.4.3L8.3 88.5z"/></clipPath></defs><path d="M8.3 88.5V13.8s.5-8.3 6.7-8.3 69.4.1 69.4.1 7.2.2 7.2 8.2v50.9s-1.6 6.9-7 7.1l-59.4.3L8.3 88.5z" fill="#ffffff" stroke="#000000" stroke-width="8" stroke-miterlimit="10"/><path clip-path="url(#clip_frame35_fill)" d="M6.4 1.587s25.8-20.506 45.9 0c20.1 20.506 41.4-6.388 41.4-6.388L92.7 96.1H6.4V1.587z" fill="#000000"/><path clip-path="url(#clip_frame35_top)" d="M2.9 22.6h72.8" fill="#ffffff" stroke="#ffffff" stroke-width="8" stroke-dasharray="0,72.8" stroke-dashoffset="72.8" stroke-miterlimit="10"/><path clip-path="url(#clip_frame35_middle)" d="M-3.1 39.1h72.8" fill="#ffffff" stroke="#ffffff" stroke-width="8" stroke-dasharray="0,72.8" stroke-dashoffset="72.8" stroke-miterlimit="10"/><path clip-path="url(#clip_frame35_bottom)" d="M-10.1 55.6h72.8" fill="#ffffff" stroke="#ffffff" stroke-width="8" stroke-dasharray="0,72.8" stroke-dashoffset="72.8" stroke-miterlimit="10"/></g><g transform="translate(3600)"><defs><clipPath id="clip_frame36_fill"><path d="M8.3 88.5V13.8s.5-8.3 6.7-8.3 69.4.1 69.4.1 7.2.2 7.2 8.2v50.9s-1.6 6.9-7 7.1l-59.4.3L8.3 88.5z"/></clipPath><clipPath id="clip_frame36_top"><path d="M8.3 88.5V13.8s.5-8.3 6.7-8.3 69.4.1 69.4.1 7.2.2 7.2 8.2v50.9s-1.6 6.9-7 7.1l-59.4.3L8.3 88.5z"/></clipPath><clipPath id="clip_frame36_middle"><path d="M8.3 88.5V13.8s.5-8.3 6.7-8.3 69.4.1 69.4.1 7.2.2 7.2 8.2v50.9s-1.6 6.9-7 7.1l-59.4.3L8.3 88.5z"/></clipPath><clipPath id="clip_frame36_bottom"><path d="M8.3 88.5V13.8s.5-8.3 6.7-8.3 69.4.1 69.4.1 7.2.2 7.2 8.2v50.9s-1.6 6.9-7 7.1l-59.4.3L8.3 88.5z"/></clipPath></defs><path d="M8.3 88.5V13.8s.5-8.3 6.7-8.3 69.4.1 69.4.1 7.2.2 7.2 8.2v50.9s-1.6 6.9-7 7.1l-59.4.3L8.3 88.5z" fill="#ffffff" stroke="#000000" stroke-width="8" stroke-miterlimit="10"/><path clip-path="url(#clip_frame36_fill)" d="M6.4.823s25.8-20.671 45.9 0c20.1 20.672 41.4-6.439 41.4-6.439L92.7 96.1H6.4V.823z" fill="#000000"/><path clip-path="url(#clip_frame36_top)" d="M2.9 22.6h72.8" fill="#ffffff" stroke="#ffffff" stroke-width="8" stroke-dasharray="0,72.8" stroke-dashoffset="72.8" stroke-miterlimit="10"/><path clip-path="url(#clip_frame36_middle)" d="M-3.1 39.1h72.8" fill="#ffffff" stroke="#ffffff" stroke-width="8" stroke-dasharray="0,72.8" stroke-dashoffset="72.8" stroke-miterlimit="10"/><path clip-path="url(#clip_frame36_bottom)" d="M-10.1 55.6h72.8" fill="#ffffff" stroke="#ffffff" stroke-width="8" stroke-dasharray="0,72.8" stroke-dashoffset="72.8" stroke-miterlimit="10"/></g><g transform="translate(3700)"><defs><clipPath id="clip_frame37_fill"><path d="M8.3 88.5V13.8s.5-8.3 6.7-8.3 69.4.1 69.4.1 7.2.2 7.2 8.2v50.9s-1.6 6.9-7 7.1l-59.4.3L8.3 88.5z"/></clipPath><clipPath id="clip_frame37_top"><path d="M8.3 88.5V13.8s.5-8.3 6.7-8.3 69.4.1 69.4.1 7.2.2 7.2 8.2v50.9s-1.6 6.9-7 7.1l-59.4.3L8.3 88.5z"/></clipPath><clipPath id="clip_frame37_middle"><path d="M8.3 88.5V13.8s.5-8.3 6.7-8.3 69.4.1 69.4.1 7.2.2 7.2 8.2v50.9s-1.6 6.9-7 7.1l-59.4.3L8.3 88.5z"/></clipPath><clipPath id="clip_frame37_bottom"><path d="M8.3 88.5V13.8s.5-8.3 6.7-8.3 69.4.1 69.4.1 7.2.2 7.2 8.2v50.9s-1.6 6.9-7 7.1l-59.4.3L8.3 88.5z"/></clipPath></defs><path d="M8.3 88.5V13.8s.5-8.3 6.7-8.3 69.4.1 69.4.1 7.2.2 7.2 8.2v50.9s-1.6 6.9-7 7.1l-59.4.3L8.3 88.5z" fill="#ffffff" stroke="#000000" stroke-width="8" stroke-miterlimit="10"/><path clip-path="url(#clip_frame37_fill)" d="M6.4.145s25.8-20.818 45.9 0c20.1 20.818 41.4-6.486 41.4-6.486L92.7 96.1H6.4V.145z" fill="#000000"/><path clip-path="url(#clip_frame37_top)" d="M2.9 22.6h72.8" fill="#ffffff" stroke="#ffffff" stroke-width="8" stroke-dasharray="0,72.8" stroke-dashoffset="72.8" stroke-miterlimit="10"/><path clip-path="url(#clip_frame37_middle)" d="M-3.1 39.1h72.8" fill="#ffffff" stroke="#ffffff" stroke-width="8" stroke-dasharray="0,72.8" stroke-dashoffset="72.8" stroke-miterlimit="10"/><path clip-path="url(#clip_frame37_bottom)" d="M-10.1 55.6h72.8" fill="#ffffff" stroke="#ffffff" stroke-width="8" stroke-dasharray="0,72.8" stroke-dashoffset="72.8" stroke-miterlimit="10"/></g><g transform="translate(3800)"><defs><clipPath id="clip_frame38_fill"><path d="M8.3 88.5V13.8s.5-8.3 6.7-8.3 69.4.1 69.4.1 7.2.2 7.2 8.2v50.9s-1.6 6.9-7 7.1l-59.4.3L8.3 88.5z"/></clipPath><clipPath id="clip_frame38_top"><path d="M8.3 88.5V13.8s.5-8.3 6.7-8.3 69.4.1 69.4.1 7.2.2 7.2 8.2v50.9s-1.6 6.9-7 7.1l-59.4.3L8.3 88.5z"/></clipPath><clipPath id="clip_frame38_middle"><path d="M8.3 88.5V13.8s.5-8.3 6.7-8.3 69.4.1 69.4.1 7.2.2 7.2 8.2v50.9s-1.6 6.9-7 7.1l-59.4.3L8.3 88.5z"/></clipPath><clipPath id="clip_frame38_bottom"><path d="M8.3 88.5V13.8s.5-8.3 6.7-8.3 69.4.1 69.4.1 7.2.2 7.2 8.2v50.9s-1.6 6.9-7 7.1l-59.4.3L8.3 88.5z"/></clipPath></defs><path d="M8.3 88.5V13.8s.5-8.3 6.7-8.3 69.4.1 69.4.1 7.2.2 7.2 8.2v50.9s-1.6 6.9-7 7.1l-59.4.3L8.3 88.5z" fill="#ffffff" stroke="#000000" stroke-width="8" stroke-miterlimit="10"/><path clip-path="url(#clip_frame38_fill)" d="M6.4-.454s25.8-20.948 45.9 0c20.1 20.948 41.4-6.527 41.4-6.527L92.7 96.1H6.4V-.454z" fill="#000000"/><path clip-path="url(#clip_frame38_top)" d="M2.9 22.6h72.8" fill="#ffffff" stroke="#ffffff" stroke-width="8" stroke-dasharray="0,72.8" stroke-dashoffset="72.8" stroke-miterlimit="10"/><path clip-path="url(#clip_frame38_middle)" d="M-3.1 39.1h72.8" fill="#ffffff" stroke="#ffffff" stroke-width="8" stroke-dasharray="0,72.8" stroke-dashoffset="72.8" stroke-miterlimit="10"/><path clip-path="url(#clip_frame38_bottom)" d="M-10.1 55.6h72.8" fill="#ffffff" stroke="#ffffff" stroke-width="8" stroke-dasharray="0,72.8" stroke-dashoffset="72.8" stroke-miterlimit="10"/></g><g transform="translate(3900)"><defs><clipPath id="clip_frame39_fill"><path d="M8.3 88.5V13.8s.5-8.3 6.7-8.3 69.4.1 69.4.1 7.2.2 7.2 8.2v50.9s-1.6 6.9-7 7.1l-59.4.3L8.3 88.5z"/></clipPath><clipPath id="clip_frame39_top"><path d="M8.3 88.5V13.8s.5-8.3 6.7-8.3 69.4.1 69.4.1 7.2.2 7.2 8.2v50.9s-1.6 6.9-7 7.1l-59.4.3L8.3 88.5z"/></clipPath><clipPath id="clip_frame39_middle"><path d="M8.3 88.5V13.8s.5-8.3 6.7-8.3 69.4.1 69.4.1 7.2.2 7.2 8.2v50.9s-1.6 6.9-7 7.1l-59.4.3L8.3 88.5z"/></clipPath><clipPath id="clip_frame39_bottom"><path d="M8.3 88.5V13.8s.5-8.3 6.7-8.3 69.4.1 69.4.1 7.2.2 7.2 8.2v50.9s-1.6 6.9-7 7.1l-59.4.3L8.3 88.5z"/></clipPath></defs><path d="M8.3 88.5V13.8s.5-8.3 6.7-8.3 69.4.1 69.4.1 7.2.2 7.2 8.2v50.9s-1.6 6.9-7 7.1l-59.4.3L8.3 88.5z" fill="#ffffff" stroke="#000000" stroke-width="8" stroke-miterlimit="10"/><path clip-path="url(#clip_frame39_fill)" d="M6.4-.979s25.8-21.062 45.9 0c20.1 21.062 41.4-6.562 41.4-6.562L92.7 96.1H6.4V-.979z" fill="#000000"/><path clip-path="url(#clip_frame39_top)" d="M2.9 22.6h72.8" fill="#ffffff" stroke="#ffffff" stroke-width="8" stroke-dasharray="0,72.8" stroke-dashoffset="72.8" stroke-miterlimit="10"/><path clip-path="url(#clip_frame39_middle)" d="M-3.1 39.1h72.8" fill="#ffffff" stroke="#ffffff" stroke-width="8" stroke-dasharray="0,72.8" stroke-dashoffset="72.8" stroke-miterlimit="10"/><path clip-path="url(#clip_frame39_bottom)" d="M-10.1 55.6h72.8" fill="#ffffff" stroke="#ffffff" stroke-width="8" stroke-dasharray="0,72.8" stroke-dashoffset="72.8" stroke-miterlimit="10"/></g><g transform="translate(4000)"><defs><clipPath id="clip_frame40_fill"><path d="M8.3 88.5V13.8s.5-8.3 6.7-8.3 69.4.1 69.4.1 7.2.2 7.2 8.2v50.9s-1.6 6.9-7 7.1l-59.4.3L8.3 88.5z"/></clipPath><clipPath id="clip_frame40_top"><path d="M8.3 88.5V13.8s.5-8.3 6.7-8.3 69.4.1 69.4.1 7.2.2 7.2 8.2v50.9s-1.6 6.9-7 7.1l-59.4.3L8.3 88.5z"/></clipPath><clipPath id="clip_frame40_middle"><path d="M8.3 88.5V13.8s.5-8.3 6.7-8.3 69.4.1 69.4.1 7.2.2 7.2 8.2v50.9s-1.6 6.9-7 7.1l-59.4.3L8.3 88.5z"/></clipPath><clipPath id="clip_frame40_bottom"><path d="M8.3 88.5V13.8s.5-8.3 6.7-8.3 69.4.1 69.4.1 7.2.2 7.2 8.2v50.9s-1.6 6.9-7 7.1l-59.4.3L8.3 88.5z"/></clipPath></defs><path d="M8.3 88.5V13.8s.5-8.3 6.7-8.3 69.4.1 69.4.1 7.2.2 7.2 8.2v50.9s-1.6 6.9-7 7.1l-59.4.3L8.3 88.5z" fill="#ffffff" stroke="#000000" stroke-width="8" stroke-miterlimit="10"/><path clip-path="url(#clip_frame40_fill)" d="M6.4-1.434s25.8-21.161 45.9 0c20.1 21.16 41.4-6.594 41.4-6.594L92.7 96.1H6.4V-1.434z" fill="#000000"/><path clip-path="url(#clip_frame40_top)" d="M2.9 22.6h72.8" fill="#ffffff" stroke="#ffffff" stroke-width="8" stroke-dasharray="0,72.8" stroke-dashoffset="72.8" stroke-miterlimit="10"/><path clip-path="url(#clip_frame40_middle)" d="M-3.1 39.1h72.8" fill="#ffffff" stroke="#ffffff" stroke-width="8" stroke-dasharray="0,72.8" stroke-dashoffset="72.8" stroke-miterlimit="10"/><path clip-path="url(#clip_frame40_bottom)" d="M-10.1 55.6h72.8" fill="#ffffff" stroke="#ffffff" stroke-width="8" stroke-dasharray="0,72.8" stroke-dashoffset="72.8" stroke-miterlimit="10"/></g><g transform="translate(4100)"><defs><clipPath id="clip_frame41_fill"><path d="M8.3 88.5V13.8s.5-8.3 6.7-8.3 69.4.1 69.4.1 7.2.2 7.2 8.2v50.9s-1.6 6.9-7 7.1l-59.4.3L8.3 88.5z"/></clipPath><clipPath id="clip_frame41_top"><path d="M8.3 88.5V13.8s.5-8.3 6.7-8.3 69.4.1 69.4.1 7.2.2 7.2 8.2v50.9s-1.6 6.9-7 7.1l-59.4.3L8.3 88.5z"/></clipPath><clipPath id="clip_frame41_middle"><path d="M8.3 88.5V13.8s.5-8.3 6.7-8.3 69.4.1 69.4.1 7.2.2 7.2 8.2v50.9s-1.6 6.9-7 7.1l-59.4.3L8.3 88.5z"/></clipPath><clipPath id="clip_frame41_bottom"><path d="M8.3 88.5V13.8s.5-8.3 6.7-8.3 69.4.1 69.4.1 7.2.2 7.2 8.2v50.9s-1.6 6.9-7 7.1l-59.4.3L8.3 88.5z"/></clipPath></defs><path d="M8.3 88.5V13.8s.5-8.3 6.7-8.3 69.4.1 69.4.1 7.2.2 7.2 8.2v50.9s-1.6 6.9-7 7.1l-59.4.3L8.3 88.5z" fill="#ffffff" stroke="#000000" stroke-width="8" stroke-miterlimit="10"/><path clip-path="url(#clip_frame41_fill)" d="M6.4-1.824s25.8-21.245 45.9 0c20.1 21.245 41.4-6.62 41.4-6.62L92.7 96.1H6.4V-1.824z" fill="#000000"/><path clip-path="url(#clip_frame41_top)" d="M2.9 22.6h72.8" fill="#ffffff" stroke="#ffffff" stroke-width="8" stroke-dasharray="0,72.8" stroke-dashoffset="72.8" stroke-miterlimit="10"/><path clip-path="url(#clip_frame41_middle)" d="M-3.1 39.1h72.8" fill="#ffffff" stroke="#ffffff" stroke-width="8" stroke-dasharray="0,72.8" stroke-dashoffset="72.8" stroke-miterlimit="10"/><path clip-path="url(#clip_frame41_bottom)" d="M-10.1 55.6h72.8" fill="#ffffff" stroke="#ffffff" stroke-width="8" stroke-dasharray="0,72.8" stroke-dashoffset="72.8" stroke-miterlimit="10"/></g><g transform="translate(4200)"><defs><clipPath id="clip_frame42_fill"><path d="M8.3 88.5V13.8s.5-8.3 6.7-8.3 69.4.1 69.4.1 7.2.2 7.2 8.2v50.9s-1.6 6.9-7 7.1l-59.4.3L8.3 88.5z"/></clipPath><clipPath id="clip_frame42_top"><path d="M8.3 88.5V13.8s.5-8.3 6.7-8.3 69.4.1 69.4.1 7.2.2 7.2 8.2v50.9s-1.6 6.9-7 7.1l-59.4.3L8.3 88.5z"/></clipPath><clipPath id="clip_frame42_middle"><path d="M8.3 88.5V13.8s.5-8.3 6.7-8.3 69.4.1 69.4.1 7.2.2 7.2 8.2v50.9s-1.6 6.9-7 7.1l-59.4.3L8.3 88.5z"/></clipPath><clipPath id="clip_frame42_bottom"><path d="M8.3 88.5V13.8s.5-8.3 6.7-8.3 69.4.1 69.4.1 7.2.2 7.2 8.2v50.9s-1.6 6.9-7 7.1l-59.4.3L8.3 88.5z"/></clipPath></defs><path d="M8.3 88.5V13.8s.5-8.3 6.7-8.3 69.4.1 69.4.1 7.2.2 7.2 8.2v50.9s-1.6 6.9-7 7.1l-59.4.3L8.3 88.5z" fill="#ffffff" stroke="#000000" stroke-width="8" stroke-miterlimit="10"/><path clip-path="url(#clip_frame42_fill)" d="M6.4-2.152s25.8-21.316 45.9 0c20.1 21.316 41.4-6.642 41.4-6.642L92.7 96.1H6.4V-2.152z" fill="#000000"/><path clip-path="url(#clip_frame42_top)" d="M2.9 22.6h72.8" fill="#ffffff" stroke="#ffffff" stroke-width="8" stroke-dasharray="0,72.8" stroke-dashoffset="72.8" stroke-miterlimit="10"/><path clip-path="url(#clip_frame42_middle)" d="M-3.1 39.1h72.8" fill="#ffffff" stroke="#ffffff" stroke-width="8" stroke-dasharray="0,72.8" stroke-dashoffset="72.8" stroke-miterlimit="10"/><path clip-path="url(#clip_frame42_bottom)" d="M-10.1 55.6h72.8" fill="#ffffff" stroke="#ffffff" stroke-width="8" stroke-dasharray="0,72.8" stroke-dashoffset="72.8" stroke-miterlimit="10"/></g><g transform="translate(4300)"><defs><clipPath id="clip_frame43_fill"><path d="M8.3 88.5V13.8s.5-8.3 6.7-8.3 69.4.1 69.4.1 7.2.2 7.2 8.2v50.9s-1.6 6.9-7 7.1l-59.4.3L8.3 88.5z"/></clipPath><clipPath id="clip_frame43_top"><path d="M8.3 88.5V13.8s.5-8.3 6.7-8.3 69.4.1 69.4.1 7.2.2 7.2 8.2v50.9s-1.6 6.9-7 7.1l-59.4.3L8.3 88.5z"/></clipPath><clipPath id="clip_frame43_middle"><path d="M8.3 88.5V13.8s.5-8.3 6.7-8.3 69.4.1 69.4.1 7.2.2 7.2 8.2v50.9s-1.6 6.9-7 7.1l-59.4.3L8.3 88.5z"/></clipPath><clipPath id="clip_frame43_bottom"><path d="M8.3 88.5V13.8s.5-8.3 6.7-8.3 69.4.1 69.4.1 7.2.2 7.2 8.2v50.9s-1.6 6.9-7 7.1l-59.4.3L8.3 88.5z"/></clipPath></defs><path d="M8.3 88.5V13.8s.5-8.3 6.7-8.3 69.4.1 69.4.1 7.2.2 7.2 8.2v50.9s-1.6 6.9-7 7.1l-59.4.3L8.3 88.5z" fill="#ffffff" stroke="#000000" stroke-width="8" stroke-miterlimit="10"/><path clip-path="url(#clip_frame43_fill)" d="M6.4-2.421s25.8-21.375 45.9 0c20.1 21.374 41.4-6.661 41.4-6.661L92.7 96.1H6.4V-2.421z" fill="#000000"/><path clip-path="url(#clip_frame43_top)" d="M2.9 22.6h72.8" fill="#ffffff" stroke="#ffffff" stroke-width="8" stroke-dasharray="1.257176409899654,71.54282359010034" stroke-dashoffset="72.8" stroke-miterlimit="10"/><path clip-path="url(#clip_frame43_middle)" d="M-3.1 39.1h72.8" fill="#ffffff" stroke="#ffffff" stroke-width="8" stroke-dasharray="0,72.8" stroke-dashoffset="72.8" stroke-miterlimit="10"/><path clip-path="url(#clip_frame43_bottom)" d="M-10.1 55.6h72.8" fill="#ffffff" stroke="#ffffff" stroke-width="8" stroke-dasharray="0,72.8" stroke-dashoffset="72.8" stroke-miterlimit="10"/></g><g transform="translate(4400)"><defs><clipPath id="clip_frame44_fill"><path d="M8.3 88.5V13.8s.5-8.3 6.7-8.3 69.4.1 69.4.1 7.2.2 7.2 8.2v50.9s-1.6 6.9-7 7.1l-59.4.3L8.3 88.5z"/></clipPath><clipPath id="clip_frame44_top"><path d="M8.3 88.5V13.8s.5-8.3 6.7-8.3 69.4.1 69.4.1 7.2.2 7.2 8.2v50.9s-1.6 6.9-7 7.1l-59.4.3L8.3 88.5z"/></clipPath><clipPath id="clip_frame44_middle"><path d="M8.3 88.5V13.8s.5-8.3 6.7-8.3 69.4.1 69.4.1 7.2.2 7.2 8.2v50.9s-1.6 6.9-7 7.1l-59.4.3L8.3 88.5z"/></clipPath><clipPath id="clip_frame44_bottom"><path d="M8.3 88.5V13.8s.5-8.3 6.7-8.3 69.4.1 69.4.1 7.2.2 7.2 8.2v50.9s-1.6 6.9-7 7.1l-59.4.3L8.3 88.5z"/></clipPath></defs><path d="M8.3 88.5V13.8s.5-8.3 6.7-8.3 69.4.1 69.4.1 7.2.2 7.2 8.2v50.9s-1.6 6.9-7 7.1l-59.4.3L8.3 88.5z" fill="#ffffff" stroke="#000000" stroke-width="8" stroke-miterlimit="10"/><path clip-path="url(#clip_frame44_fill)" d="M6.4-2.636s25.8-21.421 45.9 0c20.1 21.421 41.4-6.675 41.4-6.675L92.7 96.1H6.4V-2.636z" fill="#000000"/><path clip-path="url(#clip_frame44_top)" d="M2.9 22.6h72.8" fill="#ffffff" stroke="#ffffff" stroke-width="8" stroke-dasharray="6.195679060884119,66.60432093911588" stroke-dashoffset="72.8" stroke-miterlimit="10"/><path clip-path="url(#clip_frame44_middle)" d="M-3.1 39.1h72.8" fill="#ffffff" stroke="#ffffff" stroke-width="8" stroke-dasharray="0,72.8" stroke-dashoffset="72.8" stroke-miterlimit="10"/><path clip-path="url(#clip_frame44_bottom)" d="M-10.1 55.6h72.8" fill="#ffffff" stroke="#ffffff" stroke-width="8" stroke-dasharray="0,72.8" stroke-dashoffset="72.8" stroke-miterlimit="10"/></g><g transform="translate(4500)"><defs><clipPath id="clip_frame45_fill"><path d="M8.3 88.5V13.8s.5-8.3 6.7-8.3 69.4.1 69.4.1 7.2.2 7.2 8.2v50.9s-1.6 6.9-7 7.1l-59.4.3L8.3 88.5z"/></clipPath><clipPath id="clip_frame45_top"><path d="M8.3 88.5V13.8s.5-8.3 6.7-8.3 69.4.1 69.4.1 7.2.2 7.2 8.2v50.9s-1.6 6.9-7 7.1l-59.4.3L8.3 88.5z"/></clipPath><clipPath id="clip_frame45_middle"><path d="M8.3 88.5V13.8s.5-8.3 6.7-8.3 69.4.1 69.4.1 7.2.2 7.2 8.2v50.9s-1.6 6.9-7 7.1l-59.4.3L8.3 88.5z"/></clipPath><clipPath id="clip_frame45_bottom"><path d="M8.3 88.5V13.8s.5-8.3 6.7-8.3 69.4.1 69.4.1 7.2.2 7.2 8.2v50.9s-1.6 6.9-7 7.1l-59.4.3L8.3 88.5z"/></clipPath></defs><path d="M8.3 88.5V13.8s.5-8.3 6.7-8.3 69.4.1 69.4.1 7.2.2 7.2 8.2v50.9s-1.6 6.9-7 7.1l-59.4.3L8.3 88.5z" fill="#ffffff" stroke="#000000" stroke-width="8" stroke-miterlimit="10"/><path clip-path="url(#clip_frame45_fill)" d="M6.4-2.799s25.8-21.456 45.9 0c20.1 21.457 41.4-6.686 41.4-6.686L92.7 96.1H6.4V-2.799z" fill="#000000"/><path clip-path="url(#clip_frame45_top)" d="M2.9 22.6h72.8" fill="#ffffff" stroke="#ffffff" stroke-width="8" stroke-dasharray="17.223559842054485,55.57644015794551" stroke-dashoffset="72.8" stroke-miterlimit="10"/><path clip-path="url(#clip_frame45_middle)" d="M-3.1 39.1h72.8" fill="#ffffff" stroke="#ffffff" stroke-width="8" stroke-dasharray="0,72.8" stroke-dashoffset="72.8" stroke-miterlimit="10"/><path clip-path="url(#clip_frame45_bottom)" d="M-10.1 55.6h72.8" fill="#ffffff" stroke="#ffffff" stroke-width="8" stroke-dasharray="0,72.8" stroke-dashoffset="72.8" stroke-miterlimit="10"/></g><g transform="translate(4600)"><defs><clipPath id="clip_frame46_fill"><path d="M8.3 88.5V13.8s.5-8.3 6.7-8.3 69.4.1 69.4.1 7.2.2 7.2 8.2v50.9s-1.6 6.9-7 7.1l-59.4.3L8.3 88.5z"/></clipPath><clipPath id="clip_frame46_top"><path d="M8.3 88.5V13.8s.5-8.3 6.7-8.3 69.4.1 69.4.1 7.2.2 7.2 8.2v50.9s-1.6 6.9-7 7.1l-59.4.3L8.3 88.5z"/></clipPath><clipPath id="clip_frame46_middle"><path d="M8.3 88.5V13.8s.5-8.3 6.7-8.3 69.4.1 69.4.1 7.2.2 7.2 8.2v50.9s-1.6 6.9-7 7.1l-59.4.3L8.3 88.5z"/></clipPath><clipPath id="clip_frame46_bottom"><path d="M8.3 88.5V13.8s.5-8.3 6.7-8.3 69.4.1 69.4.1 7.2.2 7.2 8.2v50.9s-1.6 6.9-7 7.1l-59.4.3L8.3 88.5z"/></clipPath></defs><path d="M8.3 88.5V13.8s.5-8.3 6.7-8.3 69.4.1 69.4.1 7.2.2 7.2 8.2v50.9s-1.6 6.9-7 7.1l-59.4.3L8.3 88.5z" fill="#ffffff" stroke="#000000" stroke-width="8" stroke-miterlimit="10"/><path clip-path="url(#clip_frame46_fill)" d="M6.4-2.912s25.8-21.481 45.9 0c20.1 21.481 41.4-6.694 41.4-6.694L92.7 96.1H6.4V-2.912z" fill="#000000"/><path clip-path="url(#clip_frame46_top)" d="M2.9 22.6h72.8" fill="#ffffff" stroke="#ffffff" stroke-width="8" stroke-dasharray="33.28792665866832,39.51207334133168" stroke-dashoffset="72.8" stroke-miterlimit="10"/><path clip-path="url(#clip_frame46_middle)" d="M-3.1 39.1h72.8" fill="#ffffff" stroke="#ffffff" stroke-width="8" stroke-dasharray="1.2571764098996703,71.54282359010033" stroke-dashoffset="72.8" stroke-miterlimit="10"/><path clip-path="url(#clip_frame46_bottom)" d="M-10.1 55.6h72.8" fill="#ffffff" stroke="#ffffff" stroke-width="8" stroke-dasharray="0,72.8" stroke-dashoffset="72.8" stroke-miterlimit="10"/></g><g transform="translate(4700)"><defs><clipPath id="clip_frame47_fill"><path d="M8.3 88.5V13.8s.5-8.3 6.7-8.3 69.4.1 69.4.1 7.2.2 7.2 8.2v50.9s-1.6 6.9-7 7.1l-59.4.3L8.3 88.5z"/></clipPath><clipPath id="clip_frame47_top"><path d="M8.3 88.5V13.8s.5-8.3 6.7-8.3 69.4.1 69.4.1 7.2.2 7.2 8.2v50.9s-1.6 6.9-7 7.1l-59.4.3L8.3 88.5z"/></clipPath><clipPath id="clip_frame47_middle"><path d="M8.3 88.5V13.8s.5-8.3 6.7-8.3 69.4.1 69.4.1 7.2.2 7.2 8.2v50.9s-1.6 6.9-7 7.1l-59.4.3L8.3 88.5z"/></clipPath><clipPath id="clip_frame47_bottom"><path d="M8.3 88.5V13.8s.5-8.3 6.7-8.3 69.4.1 69.4.1 7.2.2 7.2 8.2v50.9s-1.6 6.9-7 7.1l-59.4.3L8.3 88.5z"/></clipPath></defs><path d="M8.3 88.5V13.8s.5-8.3 6.7-8.3 69.4.1 69.4.1 7.2.2 7.2 8.2v50.9s-1.6 6.9-7 7.1l-59.4.3L8.3 88.5z" fill="#ffffff" stroke="#000000" stroke-width="8" stroke-miterlimit="10"/><path clip-path="url(#clip_frame47_fill)" d="M6.4-2.978s25.8-21.496 45.9 0c20.1 21.495 41.4-6.699 41.4-6.699L92.7 96.1H6.4V-2.978z" fill="#000000"/><path clip-path="url(#clip_frame47_top)" d="M2.9 22.6h72.8" fill="#ffffff" stroke="#ffffff" stroke-width="8" stroke-dasharray="47.04671745402007,25.753282545979932" stroke-dashoffset="72.8" stroke-miterlimit="10"/><path clip-path="url(#clip_frame47_middle)" d="M-3.1 39.1h72.8" fill="#ffffff" stroke="#ffffff" stroke-width="8" stroke-dasharray="6.195679060884168,66.60432093911582" stroke-dashoffset="72.8" stroke-miterlimit="10"/><path clip-path="url(#clip_frame47_bottom)" d="M-10.1 55.6h72.8" fill="#ffffff" stroke="#ffffff" stroke-width="8" stroke-dasharray="0,72.8" stroke-dashoffset="72.8" stroke-miterlimit="10"/></g><g transform="translate(4800)"><defs><clipPath id="clip_frame48_fill"><path d="M8.3 88.5V13.8s.5-8.3 6.7-8.3 69.4.1 69.4.1 7.2.2 7.2 8.2v50.9s-1.6 6.9-7 7.1l-59.4.3L8.3 88.5z"/></clipPath><clipPath id="clip_frame48_top"><path d="M8.3 88.5V13.8s.5-8.3 6.7-8.3 69.4.1 69.4.1 7.2.2 7.2 8.2v50.9s-1.6 6.9-7 7.1l-59.4.3L8.3 88.5z"/></clipPath><clipPath id="clip_frame48_middle"><path d="M8.3 88.5V13.8s.5-8.3 6.7-8.3 69.4.1 69.4.1 7.2.2 7.2 8.2v50.9s-1.6 6.9-7 7.1l-59.4.3L8.3 88.5z"/></clipPath><clipPath id="clip_frame48_bottom"><path d="M8.3 88.5V13.8s.5-8.3 6.7-8.3 69.4.1 69.4.1 7.2.2 7.2 8.2v50.9s-1.6 6.9-7 7.1l-59.4.3L8.3 88.5z"/></clipPath></defs><path d="M8.3 88.5V13.8s.5-8.3 6.7-8.3 69.4.1 69.4.1 7.2.2 7.2 8.2v50.9s-1.6 6.9-7 7.1l-59.4.3L8.3 88.5z" fill="#ffffff" stroke="#000000" stroke-width="8" stroke-miterlimit="10"/><path clip-path="url(#clip_frame48_fill)" d="M6.4-3s25.8-21.5 45.9 0c20.1 21.5 41.4-6.7 41.4-6.7l-1 105.8H6.4V-3z" fill="#000000"/><path clip-path="url(#clip_frame48_top)" d="M2.9 22.6h72.8" fill="#ffffff" stroke="#ffffff" stroke-width="8" stroke-dasharray="56.46086344925919,16.339136550740804" stroke-dashoffset="72.8" stroke-miterlimit="10"/><path clip-path="url(#clip_frame48_middle)" d="M-3.1 39.1h72.8" fill="#ffffff" stroke="#ffffff" stroke-width="8" stroke-dasharray="17.223559842054485,55.57644015794551" stroke-dashoffset="72.8" stroke-miterlimit="10"/><path clip-path="url(#clip_frame48_bottom)" d="M-10.1 55.6h72.8" fill="#ffffff" stroke="#ffffff" stroke-width="8" stroke-dasharray="0,72.8" stroke-dashoffset="72.8" stroke-miterlimit="10"/></g><g transform="translate(4900)"><defs><clipPath id="clip_frame49_fill"><path d="M8.3 88.5V13.8s.5-8.3 6.7-8.3 69.4.1 69.4.1 7.2.2 7.2 8.2v50.9s-1.6 6.9-7 7.1l-59.4.3L8.3 88.5z"/></clipPath><clipPath id="clip_frame49_top"><path d="M8.3 88.5V13.8s.5-8.3 6.7-8.3 69.4.1 69.4.1 7.2.2 7.2 8.2v50.9s-1.6 6.9-7 7.1l-59.4.3L8.3 88.5z"/></clipPath><clipPath id="clip_frame49_middle"><path d="M8.3 88.5V13.8s.5-8.3 6.7-8.3 69.4.1 69.4.1 7.2.2 7.2 8.2v50.9s-1.6 6.9-7 7.1l-59.4.3L8.3 88.5z"/></clipPath><clipPath id="clip_frame49_bottom"><path d="M8.3 88.5V13.8s.5-8.3 6.7-8.3 69.4.1 69.4.1 7.2.2 7.2 8.2v50.9s-1.6 6.9-7 7.1l-59.4.3L8.3 88.5z"/></clipPath></defs><path d="M8.3 88.5V13.8s.5-8.3 6.7-8.3 69.4.1 69.4.1 7.2.2 7.2 8.2v50.9s-1.6 6.9-7 7.1l-59.4.3L8.3 88.5z" fill="#ffffff" stroke="#000000" stroke-width="8" stroke-miterlimit="10"/><path clip-path="url(#clip_frame49_fill)" d="M6.4-3s25.8-21.5 45.9 0c20.1 21.5 41.4-6.7 41.4-6.7l-1 105.8H6.4V-3z" fill="#000000"/><path clip-path="url(#clip_frame49_top)" d="M2.9 22.6h72.8" fill="#ffffff" stroke="#ffffff" stroke-width="8" stroke-dasharray="62.77916791669356,10.02083208330644" stroke-dashoffset="72.8" stroke-miterlimit="10"/><path clip-path="url(#clip_frame49_middle)" d="M-3.1 39.1h72.8" fill="#ffffff" stroke="#ffffff" stroke-width="8" stroke-dasharray="33.287926658668205,39.51207334133179" stroke-dashoffset="72.8" stroke-miterlimit="10"/><path clip-path="url(#clip_frame49_bottom)" d="M-10.1 55.6h72.8" fill="#ffffff" stroke="#ffffff" stroke-width="8" stroke-dasharray="0,72.8" stroke-dashoffset="72.8" stroke-miterlimit="10"/></g><g transform="translate(5000)"><defs><clipPath id="clip_frame50_fill"><path d="M8.3 88.5V13.8s.5-8.3 6.7-8.3 69.4.1 69.4.1 7.2.2 7.2 8.2v50.9s-1.6 6.9-7 7.1l-59.4.3L8.3 88.5z"/></clipPath><clipPath id="clip_frame50_top"><path d="M8.3 88.5V13.8s.5-8.3 6.7-8.3 69.4.1 69.4.1 7.2.2 7.2 8.2v50.9s-1.6 6.9-7 7.1l-59.4.3L8.3 88.5z"/></clipPath><clipPath id="clip_frame50_middle"><path d="M8.3 88.5V13.8s.5-8.3 6.7-8.3 69.4.1 69.4.1 7.2.2 7.2 8.2v50.9s-1.6 6.9-7 7.1l-59.4.3L8.3 88.5z"/></clipPath><clipPath id="clip_frame50_bottom"><path d="M8.3 88.5V13.8s.5-8.3 6.7-8.3 69.4.1 69.4.1 7.2.2 7.2 8.2v50.9s-1.6 6.9-7 7.1l-59.4.3L8.3 88.5z"/></clipPath></defs><path d="M8.3 88.5V13.8s.5-8.3 6.7-8.3 69.4.1 69.4.1 7.2.2 7.2 8.2v50.9s-1.6 6.9-7 7.1l-59.4.3L8.3 88.5z" fill="#ffffff" stroke="#000000" stroke-width="8" stroke-miterlimit="10"/><path clip-path="url(#clip_frame50_fill)" d="M6.4-3s25.8-21.5 45.9 0c20.1 21.5 41.4-6.7 41.4-6.7l-1 105.8H6.4V-3z" fill="#000000"/><path clip-path="url(#clip_frame50_top)" d="M2.9 22.6h72.8" fill="#ffffff" stroke="#ffffff" stroke-width="8" stroke-dasharray="67.0324770336568,5.7675229663431935" stroke-dashoffset="72.8" stroke-miterlimit="10"/><path clip-path="url(#clip_frame50_middle)" d="M-3.1 39.1h72.8" fill="#ffffff" stroke="#ffffff" stroke-width="8" stroke-dasharray="47.04671745402007,25.753282545979932" stroke-dashoffset="72.8" stroke-miterlimit="10"/><path clip-path="url(#clip_frame50_bottom)" d="M-10.1 55.6h72.8" fill="#ffffff" stroke="#ffffff" stroke-width="8" stroke-dasharray="0,72.8" stroke-dashoffset="72.8" stroke-miterlimit="10"/></g><g transform="translate(5100)"><defs><clipPath id="clip_frame51_fill"><path d="M8.3 88.5V13.8s.5-8.3 6.7-8.3 69.4.1 69.4.1 7.2.2 7.2 8.2v50.9s-1.6 6.9-7 7.1l-59.4.3L8.3 88.5z"/></clipPath><clipPath id="clip_frame51_top"><path d="M8.3 88.5V13.8s.5-8.3 6.7-8.3 69.4.1 69.4.1 7.2.2 7.2 8.2v50.9s-1.6 6.9-7 7.1l-59.4.3L8.3 88.5z"/></clipPath><clipPath id="clip_frame51_middle"><path d="M8.3 88.5V13.8s.5-8.3 6.7-8.3 69.4.1 69.4.1 7.2.2 7.2 8.2v50.9s-1.6 6.9-7 7.1l-59.4.3L8.3 88.5z"/></clipPath><clipPath id="clip_frame51_bottom"><path d="M8.3 88.5V13.8s.5-8.3 6.7-8.3 69.4.1 69.4.1 7.2.2 7.2 8.2v50.9s-1.6 6.9-7 7.1l-59.4.3L8.3 88.5z"/></clipPath></defs><path d="M8.3 88.5V13.8s.5-8.3 6.7-8.3 69.4.1 69.4.1 7.2.2 7.2 8.2v50.9s-1.6 6.9-7 7.1l-59.4.3L8.3 88.5z" fill="#ffffff" stroke="#000000" stroke-width="8" stroke-miterlimit="10"/><path clip-path="url(#clip_frame51_fill)" d="M6.4-3s25.8-21.5 45.9 0c20.1 21.5 41.4-6.7 41.4-6.7l-1 105.8H6.4V-3z" fill="#000000"/><path clip-path="url(#clip_frame51_top)" d="M2.9 22.6h72.8" fill="#ffffff" stroke="#ffffff" stroke-width="8" stroke-dasharray="69.84197123462657,2.9580287653734247" stroke-dashoffset="72.8" stroke-miterlimit="10"/><path clip-path="url(#clip_frame51_middle)" d="M-3.1 39.1h72.8" fill="#ffffff" stroke="#ffffff" stroke-width="8" stroke-dasharray="56.46086344925919,16.339136550740804" stroke-dashoffset="72.8" stroke-miterlimit="10"/><path clip-path="url(#clip_frame51_bottom)" d="M-10.1 55.6h72.8" fill="#ffffff" stroke="#ffffff" stroke-width="8" stroke-dasharray="0,72.8" stroke-dashoffset="72.8" stroke-miterlimit="10"/></g><g transform="translate(5200)"><defs><clipPath id="clip_frame52_fill"><path d="M8.3 88.5V13.8s.5-8.3 6.7-8.3 69.4.1 69.4.1 7.2.2 7.2 8.2v50.9s-1.6 6.9-7 7.1l-59.4.3L8.3 88.5z"/></clipPath><clipPath id="clip_frame52_top"><path d="M8.3 88.5V13.8s.5-8.3 6.7-8.3 69.4.1 69.4.1 7.2.2 7.2 8.2v50.9s-1.6 6.9-7 7.1l-59.4.3L8.3 88.5z"/></clipPath><clipPath id="clip_frame52_middle"><path d="M8.3 88.5V13.8s.5-8.3 6.7-8.3 69.4.1 69.4.1 7.2.2 7.2 8.2v50.9s-1.6 6.9-7 7.1l-59.4.3L8.3 88.5z"/></clipPath><clipPath id="clip_frame52_bottom"><path d="M8.3 88.5V13.8s.5-8.3 6.7-8.3 69.4.1 69.4.1 7.2.2 7.2 8.2v50.9s-1.6 6.9-7 7.1l-59.4.3L8.3 88.5z"/></clipPath></defs><path d="M8.3 88.5V13.8s.5-8.3 6.7-8.3 69.4.1 69.4.1 7.2.2 7.2 8.2v50.9s-1.6 6.9-7 7.1l-59.4.3L8.3 88.5z" fill="#ffffff" stroke="#000000" stroke-width="8" stroke-miterlimit="10"/><path clip-path="url(#clip_frame52_fill)" d="M6.4-3s25.8-21.5 45.9 0c20.1 21.5 41.4-6.7 41.4-6.7l-1 105.8H6.4V-3z" fill="#000000"/><path clip-path="url(#clip_frame52_top)" d="M2.9 22.6h72.8" fill="#ffffff" stroke="#ffffff" stroke-width="8" stroke-dasharray="71.5885086759695,1.2114913240304859" stroke-dashoffset="72.8" stroke-miterlimit="10"/><path clip-path="url(#clip_frame52_middle)" d="M-3.1 39.1h72.8" fill="#ffffff" stroke="#ffffff" stroke-width="8" stroke-dasharray="62.77916791669359,10.020832083306408" stroke-dashoffset="72.8" stroke-miterlimit="10"/><path clip-path="url(#clip_frame52_bottom)" d="M-10.1 55.6h72.8" fill="#ffffff" stroke="#ffffff" stroke-width="8" stroke-dasharray="0,72.8" stroke-dashoffset="72.8" stroke-miterlimit="10"/></g><g transform="translate(5300)"><defs><clipPath id="clip_frame53_fill"><path d="M8.3 88.5V13.8s.5-8.3 6.7-8.3 69.4.1 69.4.1 7.2.2 7.2 8.2v50.9s-1.6 6.9-7 7.1l-59.4.3L8.3 88.5z"/></clipPath><clipPath id="clip_frame53_top"><path d="M8.3 88.5V13.8s.5-8.3 6.7-8.3 69.4.1 69.4.1 7.2.2 7.2 8.2v50.9s-1.6 6.9-7 7.1l-59.4.3L8.3 88.5z"/></clipPath><clipPath id="clip_frame53_middle"><path d="M8.3 88.5V13.8s.5-8.3 6.7-8.3 69.4.1 69.4.1 7.2.2 7.2 8.2v50.9s-1.6 6.9-7 7.1l-59.4.3L8.3 88.5z"/></clipPath><clipPath id="clip_frame53_bottom"><path d="M8.3 88.5V13.8s.5-8.3 6.7-8.3 69.4.1 69.4.1 7.2.2 7.2 8.2v50.9s-1.6 6.9-7 7.1l-59.4.3L8.3 88.5z"/></clipPath></defs><path d="M8.3 88.5V13.8s.5-8.3 6.7-8.3 69.4.1 69.4.1 7.2.2 7.2 8.2v50.9s-1.6 6.9-7 7.1l-59.4.3L8.3 88.5z" fill="#ffffff" stroke="#000000" stroke-width="8" stroke-miterlimit="10"/><path clip-path="url(#clip_frame53_fill)" d="M6.4-3s25.8-21.5 45.9 0c20.1 21.5 41.4-6.7 41.4-6.7l-1 105.8H6.4V-3z" fill="#000000"/><path clip-path="url(#clip_frame53_top)" d="M2.9 22.6h72.8" fill="#ffffff" stroke="#ffffff" stroke-width="8" stroke-dasharray="72.51855300447848,0.28144699552152463" stroke-dashoffset="72.8" stroke-miterlimit="10"/><path clip-path="url(#clip_frame53_middle)" d="M-3.1 39.1h72.8" fill="#ffffff" stroke="#ffffff" stroke-width="8" stroke-dasharray="67.03247703365679,5.7675229663432095" stroke-dashoffset="72.8" stroke-miterlimit="10"/><path clip-path="url(#clip_frame53_bottom)" d="M-10.1 55.6h72.8" fill="#ffffff" stroke="#ffffff" stroke-width="8" stroke-dasharray="0,72.8" stroke-dashoffset="72.8" stroke-miterlimit="10"/></g><g transform="translate(5400)"><defs><clipPath id="clip_frame54_fill"><path d="M8.3 88.5V13.8s.5-8.3 6.7-8.3 69.4.1 69.4.1 7.2.2 7.2 8.2v50.9s-1.6 6.9-7 7.1l-59.4.3L8.3 88.5z"/></clipPath><clipPath id="clip_frame54_top"><path d="M8.3 88.5V13.8s.5-8.3 6.7-8.3 69.4.1 69.4.1 7.2.2 7.2 8.2v50.9s-1.6 6.9-7 7.1l-59.4.3L8.3 88.5z"/></clipPath><clipPath id="clip_frame54_middle"><path d="M8.3 88.5V13.8s.5-8.3 6.7-8.3 69.4.1 69.4.1 7.2.2 7.2 8.2v50.9s-1.6 6.9-7 7.1l-59.4.3L8.3 88.5z"/></clipPath><clipPath id="clip_frame54_bottom"><path d="M8.3 88.5V13.8s.5-8.3 6.7-8.3 69.4.1 69.4.1 7.2.2 7.2 8.2v50.9s-1.6 6.9-7 7.1l-59.4.3L8.3 88.5z"/></clipPath></defs><path d="M8.3 88.5V13.8s.5-8.3 6.7-8.3 69.4.1 69.4.1 7.2.2 7.2 8.2v50.9s-1.6 6.9-7 7.1l-59.4.3L8.3 88.5z" fill="#ffffff" stroke="#000000" stroke-width="8" stroke-miterlimit="10"/><path clip-path="url(#clip_frame54_fill)" d="M6.4-3s25.8-21.5 45.9 0c20.1 21.5 41.4-6.7 41.4-6.7l-1 105.8H6.4V-3z" fill="#000000"/><path clip-path="url(#clip_frame54_top)" d="M2.9 22.6h72.8" fill="#ffffff" stroke="#ffffff" stroke-width="8" stroke-miterlimit="10"/><path clip-path="url(#clip_frame54_middle)" d="M-3.1 39.1h72.8" fill="#ffffff" stroke="#ffffff" stroke-width="8" stroke-dasharray="69.84197123462657,2.9580287653734247" stroke-dashoffset="72.8" stroke-miterlimit="10"/><path clip-path="url(#clip_frame54_bottom)" d="M-10.1 55.6h72.8" fill="#ffffff" stroke="#ffffff" stroke-width="8" stroke-miterlimit="10"/></g><g transform="translate(5500)"><defs><clipPath id="clip_frame55_fill"><path d="M8.3 88.5V13.8s.5-8.3 6.7-8.3 69.4.1 69.4.1 7.2.2 7.2 8.2v50.9s-1.6 6.9-7 7.1l-59.4.3L8.3 88.5z"/></clipPath><clipPath id="clip_frame55_top"><path d="M8.3 88.5V13.8s.5-8.3 6.7-8.3 69.4.1 69.4.1 7.2.2 7.2 8.2v50.9s-1.6 6.9-7 7.1l-59.4.3L8.3 88.5z"/></clipPath><clipPath id="clip_frame55_middle"><path d="M8.3 88.5V13.8s.5-8.3 6.7-8.3 69.4.1 69.4.1 7.2.2 7.2 8.2v50.9s-1.6 6.9-7 7.1l-59.4.3L8.3 88.5z"/></clipPath><clipPath id="clip_frame55_bottom"><path d="M8.3 88.5V13.8s.5-8.3 6.7-8.3 69.4.1 69.4.1 7.2.2 7.2 8.2v50.9s-1.6 6.9-7 7.1l-59.4.3L8.3 88.5z"/></clipPath></defs><path d="M8.3 88.5V13.8s.5-8.3 6.7-8.3 69.4.1 69.4.1 7.2.2 7.2 8.2v50.9s-1.6 6.9-7 7.1l-59.4.3L8.3 88.5z" fill="#ffffff" stroke="#000000" stroke-width="8" stroke-miterlimit="10"/><path clip-path="url(#clip_frame55_fill)" d="M6.4-3s25.8-21.5 45.9 0c20.1 21.5 41.4-6.7 41.4-6.7l-1 105.8H6.4V-3z" fill="#000000"/><path clip-path="url(#clip_frame55_top)" d="M2.9 22.6h72.8" fill="#ffffff" stroke="#ffffff" stroke-width="8" stroke-miterlimit="10"/><path clip-path="url(#clip_frame55_middle)" d="M-3.1 39.1h72.8" fill="#ffffff" stroke="#ffffff" stroke-width="8" stroke-dasharray="71.5885086759695,1.2114913240304939" stroke-dashoffset="72.8" stroke-miterlimit="10"/><path clip-path="url(#clip_frame55_bottom)" d="M-10.1 55.6h72.8" fill="#ffffff" stroke="#ffffff" stroke-width="8" stroke-miterlimit="10"/></g><g transform="translate(5600)"><defs><clipPath id="clip_frame56_fill"><path d="M8.3 88.5V13.8s.5-8.3 6.7-8.3 69.4.1 69.4.1 7.2.2 7.2 8.2v50.9s-1.6 6.9-7 7.1l-59.4.3L8.3 88.5z"/></clipPath><clipPath id="clip_frame56_top"><path d="M8.3 88.5V13.8s.5-8.3 6.7-8.3 69.4.1 69.4.1 7.2.2 7.2 8.2v50.9s-1.6 6.9-7 7.1l-59.4.3L8.3 88.5z"/></clipPath><clipPath id="clip_frame56_middle"><path d="M8.3 88.5V13.8s.5-8.3 6.7-8.3 69.4.1 69.4.1 7.2.2 7.2 8.2v50.9s-1.6 6.9-7 7.1l-59.4.3L8.3 88.5z"/></clipPath><clipPath id="clip_frame56_bottom"><path d="M8.3 88.5V13.8s.5-8.3 6.7-8.3 69.4.1 69.4.1 7.2.2 7.2 8.2v50.9s-1.6 6.9-7 7.1l-59.4.3L8.3 88.5z"/></clipPath></defs><path d="M8.3 88.5V13.8s.5-8.3 6.7-8.3 69.4.1 69.4.1 7.2.2 7.2 8.2v50.9s-1.6 6.9-7 7.1l-59.4.3L8.3 88.5z" fill="#ffffff" stroke="#000000" stroke-width="8" stroke-miterlimit="10"/><path clip-path="url(#clip_frame56_fill)" d="M6.4-3s25.8-21.5 45.9 0c20.1 21.5 41.4-6.7 41.4-6.7l-1 105.8H6.4V-3z" fill="#000000"/><path clip-path="url(#clip_frame56_top)" d="M2.9 22.6h72.8" fill="#ffffff" stroke="#ffffff" stroke-width="8" stroke-miterlimit="10"/><path clip-path="url(#clip_frame56_middle)" d="M-3.1 39.1h72.8" fill="#ffffff" stroke="#ffffff" stroke-width="8" stroke-dasharray="72.51855300447848,0.28144699552152463" stroke-dashoffset="72.8" stroke-miterlimit="10"/><path clip-path="url(#clip_frame56_bottom)" d="M-10.1 55.6h72.8" fill="#ffffff" stroke="#ffffff" stroke-width="8" stroke-miterlimit="10"/></g><g transform="translate(5700)"><defs><clipPath id="clip_frame57_fill"><path d="M8.3 88.5V13.8s.5-8.3 6.7-8.3 69.4.1 69.4.1 7.2.2 7.2 8.2v50.9s-1.6 6.9-7 7.1l-59.4.3L8.3 88.5z"/></clipPath><clipPath id="clip_frame57_top"><path d="M8.3 88.5V13.8s.5-8.3 6.7-8.3 69.4.1 69.4.1 7.2.2 7.2 8.2v50.9s-1.6 6.9-7 7.1l-59.4.3L8.3 88.5z"/></clipPath><clipPath id="clip_frame57_middle"><path d="M8.3 88.5V13.8s.5-8.3 6.7-8.3 69.4.1 69.4.1 7.2.2 7.2 8.2v50.9s-1.6 6.9-7 7.1l-59.4.3L8.3 88.5z"/></clipPath><clipPath id="clip_frame57_bottom"><path d="M8.3 88.5V13.8s.5-8.3 6.7-8.3 69.4.1 69.4.1 7.2.2 7.2 8.2v50.9s-1.6 6.9-7 7.1l-59.4.3L8.3 88.5z"/></clipPath></defs><path d="M8.3 88.5V13.8s.5-8.3 6.7-8.3 69.4.1 69.4.1 7.2.2 7.2 8.2v50.9s-1.6 6.9-7 7.1l-59.4.3L8.3 88.5z" fill="#ffffff" stroke="#000000" stroke-width="8" stroke-miterlimit="10"/><path clip-path="url(#clip_frame57_fill)" d="M6.4-3s25.8-21.5 45.9 0c20.1 21.5 41.4-6.7 41.4-6.7l-1 105.8H6.4V-3z" fill="#000000"/><path clip-path="url(#clip_frame57_top)" d="M2.9 22.6h72.8" fill="#ffffff" stroke="#ffffff" stroke-width="8" stroke-miterlimit="10"/><path clip-path="url(#clip_frame57_middle)" d="M-3.1 39.1h72.8" fill="#ffffff" stroke="#ffffff" stroke-width="8" stroke-miterlimit="10"/><path clip-path="url(#clip_frame57_bottom)" d="M-10.1 55.6h72.8" fill="#ffffff" stroke="#ffffff" stroke-width="8" stroke-miterlimit="10"/></g><g transform="translate(5800)"><defs><clipPath id="clip_frame58_fill"><path d="M8.3 88.5V13.8s.5-8.3 6.7-8.3 69.4.1 69.4.1 7.2.2 7.2 8.2v50.9s-1.6 6.9-7 7.1l-59.4.3L8.3 88.5z"/></clipPath><clipPath id="clip_frame58_top"><path d="M8.3 88.5V13.8s.5-8.3 6.7-8.3 69.4.1 69.4.1 7.2.2 7.2 8.2v50.9s-1.6 6.9-7 7.1l-59.4.3L8.3 88.5z"/></clipPath><clipPath id="clip_frame58_middle"><path d="M8.3 88.5V13.8s.5-8.3 6.7-8.3 69.4.1 69.4.1 7.2.2 7.2 8.2v50.9s-1.6 6.9-7 7.1l-59.4.3L8.3 88.5z"/></clipPath><clipPath id="clip_frame58_bottom"><path d="M8.3 88.5V13.8s.5-8.3 6.7-8.3 69.4.1 69.4.1 7.2.2 7.2 8.2v50.9s-1.6 6.9-7 7.1l-59.4.3L8.3 88.5z"/></clipPath></defs><path d="M8.3 88.5V13.8s.5-8.3 6.7-8.3 69.4.1 69.4.1 7.2.2 7.2 8.2v50.9s-1.6 6.9-7 7.1l-59.4.3L8.3 88.5z" fill="#ffffff" stroke="#000000" stroke-width="8" stroke-miterlimit="10"/><path clip-path="url(#clip_frame58_fill)" d="M6.4-3s25.8-21.5 45.9 0c20.1 21.5 41.4-6.7 41.4-6.7l-1 105.8H6.4V-3z" fill="#000000"/><path clip-path="url(#clip_frame58_top)" d="M2.9 22.6h72.8" fill="#ffffff" stroke="#ffffff" stroke-width="8" stroke-miterlimit="10"/><path clip-path="url(#clip_frame58_middle)" d="M-3.1 39.1h72.8" fill="#ffffff" stroke="#ffffff" stroke-width="8" stroke-miterlimit="10"/><path clip-path="url(#clip_frame58_bottom)" d="M-10.1 55.6h72.8" fill="#ffffff" stroke="#ffffff" stroke-width="8" stroke-miterlimit="10"/></g><g transform="translate(5900)"><defs><clipPath id="clip_frame59_fill"><path d="M8.3 88.5V13.8s.5-8.3 6.7-8.3 69.4.1 69.4.1 7.2.2 7.2 8.2v50.9s-1.6 6.9-7 7.1l-59.4.3L8.3 88.5z"/></clipPath><clipPath id="clip_frame59_top"><path d="M8.3 88.5V13.8s.5-8.3 6.7-8.3 69.4.1 69.4.1 7.2.2 7.2 8.2v50.9s-1.6 6.9-7 7.1l-59.4.3L8.3 88.5z"/></clipPath><clipPath id="clip_frame59_middle"><path d="M8.3 88.5V13.8s.5-8.3 6.7-8.3 69.4.1 69.4.1 7.2.2 7.2 8.2v50.9s-1.6 6.9-7 7.1l-59.4.3L8.3 88.5z"/></clipPath><clipPath id="clip_frame59_bottom"><path d="M8.3 88.5V13.8s.5-8.3 6.7-8.3 69.4.1 69.4.1 7.2.2 7.2 8.2v50.9s-1.6 6.9-7 7.1l-59.4.3L8.3 88.5z"/></clipPath></defs><path d="M8.3 88.5V13.8s.5-8.3 6.7-8.3 69.4.1 69.4.1 7.2.2 7.2 8.2v50.9s-1.6 6.9-7 7.1l-59.4.3L8.3 88.5z" fill="#ffffff" stroke="#000000" stroke-width="8" stroke-miterlimit="10"/><path clip-path="url(#clip_frame59_fill)" d="M6.4-3s25.8-21.5 45.9 0c20.1 21.5 41.4-6.7 41.4-6.7l-1 105.8H6.4V-3z" fill="#000000"/><path clip-path="url(#clip_frame59_top)" d="M2.9 22.6h72.8" fill="#ffffff" stroke="#ffffff" stroke-width="8" stroke-miterlimit="10"/><path clip-path="url(#clip_frame59_middle)" d="M-3.1 39.1h72.8" fill="#ffffff" stroke="#ffffff" stroke-width="8" stroke-miterlimit="10"/><path clip-path="url(#clip_frame59_bottom)" d="M-10.1 55.6h72.8" fill="#ffffff" stroke="#ffffff" stroke-width="8" stroke-miterlimit="10"/></g><g transform="translate(6000)"><defs><clipPath id="clip_frame60_fill"><path d="M8.3 88.5V13.8s.5-8.3 6.7-8.3 69.4.1 69.4.1 7.2.2 7.2 8.2v50.9s-1.6 6.9-7 7.1l-59.4.3L8.3 88.5z"/></clipPath><clipPath id="clip_frame60_top"><path d="M8.3 88.5V13.8s.5-8.3 6.7-8.3 69.4.1 69.4.1 7.2.2 7.2 8.2v50.9s-1.6 6.9-7 7.1l-59.4.3L8.3 88.5z"/></clipPath><clipPath id="clip_frame60_middle"><path d="M8.3 88.5V13.8s.5-8.3 6.7-8.3 69.4.1 69.4.1 7.2.2 7.2 8.2v50.9s-1.6 6.9-7 7.1l-59.4.3L8.3 88.5z"/></clipPath><clipPath id="clip_frame60_bottom"><path d="M8.3 88.5V13.8s.5-8.3 6.7-8.3 69.4.1 69.4.1 7.2.2 7.2 8.2v50.9s-1.6 6.9-7 7.1l-59.4.3L8.3 88.5z"/></clipPath></defs><path d="M8.3 88.5V13.8s.5-8.3 6.7-8.3 69.4.1 69.4.1 7.2.2 7.2 8.2v50.9s-1.6 6.9-7 7.1l-59.4.3L8.3 88.5z" fill="#ffffff" stroke="#000000" stroke-width="8" stroke-miterlimit="10"/><path clip-path="url(#clip_frame60_fill)" d="M6.4-3s25.8-21.5 45.9 0c20.1 21.5 41.4-6.7 41.4-6.7l-1 105.8H6.4V-3z" fill="#000000"/><path clip-path="url(#clip_frame60_top)" d="M2.9 22.6h72.8" fill="#ffffff" stroke="#ffffff" stroke-width="8" stroke-miterlimit="10"/><path clip-path="url(#clip_frame60_middle)" d="M-3.1 39.1h72.8" fill="#ffffff" stroke="#ffffff" stroke-width="8" stroke-miterlimit="10"/><path clip-path="url(#clip_frame60_bottom)" d="M-10.1 55.6h72.8" fill="#ffffff" stroke="#ffffff" stroke-width="8" stroke-miterlimit="10"/></g></svg>